<svg width="136" height="154" viewBox="0 0 136 154" fill="none" xmlns="http://www.w3.org/2000/svg">
<g clip-path="url(#clip0_57_6448)">
<rect x="5.5" width="125" height="125" rx="36" fill="#9E79A6"/>
<g style="mix-blend-mode:multiply">
<path d="M71.4024 45.7927C73.5574 45.1402 75.6774 44.2977 77.7474 43.1927C80.9374 41.4902 83.9624 39.3177 86.5949 36.7552C84.7349 36.4152 82.8574 36.2252 80.9924 36.2002C80.9674 34.3377 80.7774 32.4577 80.4374 30.5977C77.8774 33.2302 75.7024 36.2552 73.9999 39.4452C72.8949 41.5152 72.0524 43.6352 71.3999 45.7902L71.4024 45.7927Z" fill="#9E79A6"/>
<path d="M53.1747 28.388C49.6297 25.338 45.4972 23.0355 40.8822 21.958L40.8222 22.018L40.7622 22.078C41.8397 26.693 44.1397 30.828 47.1922 34.3705C49.0322 34.0855 50.8972 33.9755 52.7747 33.9705C52.7797 32.0905 52.8897 30.2255 53.1747 28.388Z" fill="#9E79A6"/>
<path d="M87.9224 35.398C91.4199 31.6205 94.0624 27.103 95.2374 22.078L95.1774 22.018L95.1174 21.958C90.0924 23.133 85.5749 25.778 81.7974 29.273C82.1874 31.048 82.4524 32.8455 82.5524 34.6405C84.3474 34.743 86.1474 35.0055 87.9199 35.3955L87.9224 35.398Z" fill="#9E79A6"/>
<path d="M88.8099 64.0225C86.9699 64.3075 85.1049 64.4175 83.2274 64.4225C83.2224 66.3025 83.1124 68.1675 82.8274 70.005C86.3724 73.055 90.5049 75.3575 95.1199 76.435L95.1799 76.375L95.2399 76.315C94.1624 71.7 91.8624 67.565 88.8099 64.0225Z" fill="#9E79A6"/>
<path d="M81.6848 62.88C83.6423 62.93 85.5948 62.8575 87.5248 62.61C84.6823 59.65 81.3198 57.1525 77.7473 55.1975C75.6698 54.06 73.5273 53.2 71.3398 52.54C71.9998 54.725 72.8598 56.8675 73.9973 58.945C75.9523 62.5175 78.4499 65.88 81.4099 68.7225C81.6574 66.7925 81.7298 64.84 81.6798 62.8825L81.6848 62.88Z" fill="#9E79A6"/>
<path d="M64.5973 52.6003C62.4423 53.2528 60.3223 54.0953 58.2523 55.2003C55.0623 56.9028 52.0373 59.0753 49.4048 61.6378C51.2648 61.9778 53.1423 62.1678 55.0073 62.1928C55.0323 64.0578 55.2223 65.9353 55.5623 67.7953C58.1248 65.1628 60.2973 62.1378 61.9998 58.9478C63.1048 56.8778 63.9473 54.7578 64.5998 52.6028L64.5973 52.6003Z" fill="#9E79A6"/>
<path d="M76.0173 65.5654C76.0248 65.4204 76.0648 65.3004 76.1248 65.1954C74.9023 63.5804 73.8023 61.8829 72.8448 60.1329C71.1173 56.9804 69.9698 53.7229 69.1948 50.3904C72.5248 51.1654 75.7823 52.3129 78.9373 54.0404C80.6848 54.9979 82.3823 56.0979 83.9973 57.3204C84.0998 57.2604 84.2223 57.2204 84.3673 57.2129C88.7998 56.9829 92.2498 53.1979 95.7223 50.8579C96.7973 50.1329 97.8948 49.5654 99.0023 49.1854C97.9423 48.8179 96.8898 48.2854 95.8448 47.6079C92.2748 45.2904 88.8848 41.4054 84.3673 41.1729C84.2098 41.1654 84.0773 41.1154 83.9698 41.0454C82.3623 42.2654 80.6748 43.3704 78.9398 44.3454C75.7948 46.1129 72.5123 47.2729 69.1473 48.0479C69.9223 44.6829 71.0823 41.4004 72.8498 38.2554C73.8248 36.5179 74.9298 34.8304 76.1498 33.2254C76.0798 33.1154 76.0298 32.9854 76.0223 32.8254C75.7898 28.3079 71.9023 24.9179 69.5873 21.3479C68.9098 20.3054 68.3773 19.2504 68.0098 18.1904C67.6298 19.2979 67.0648 20.3954 66.3373 21.4704C63.9973 24.9429 60.2123 28.3929 59.9823 32.8254C59.9748 32.9704 59.9348 33.0904 59.8748 33.1954C61.0973 34.8104 62.1973 36.5079 63.1548 38.2579C64.8823 41.4104 66.0298 44.6679 66.8048 47.9979C63.4748 47.2229 60.2173 46.0754 57.0648 44.3479C55.3173 43.3904 53.6173 42.2904 52.0023 41.0679C51.8998 41.1279 51.7773 41.1679 51.6323 41.1754C47.1998 41.4054 43.7498 45.1904 40.2773 47.5304C39.2023 48.2554 38.1048 48.8204 36.9973 49.2029C38.0573 49.5704 39.1098 50.1029 40.1548 50.7804C43.7248 53.0979 47.1148 56.9829 51.6323 57.2154C51.7898 57.2229 51.9223 57.2729 52.0298 57.3429C53.6373 56.1229 55.3248 55.0179 57.0623 54.0429C60.2073 52.2754 63.4898 51.1154 66.8548 50.3404C66.0798 53.7054 64.9198 56.9879 63.1523 60.1329C62.1773 61.8704 61.0723 63.5579 59.8523 65.1654C59.9223 65.2754 59.9723 65.4054 59.9798 65.5654C60.2123 70.0829 64.0998 73.4729 66.4148 77.0429C67.0923 78.0854 67.6248 79.1404 67.9923 80.2004C68.3723 79.0929 68.9373 77.9979 69.6648 76.9204C72.0048 73.4504 75.7898 69.9979 76.0198 65.5654H76.0173Z" fill="#9E79A6"/>
<path d="M48.0772 62.9951C44.5797 66.7726 41.9372 71.2901 40.7622 76.3151L40.8222 76.3751L40.8822 76.4351C45.9072 75.2601 50.4247 72.6151 54.2022 69.1201C53.8122 67.3451 53.5497 65.5476 53.4472 63.7526C51.6522 63.6501 49.8522 63.3876 48.0797 62.9976L48.0772 62.9951Z" fill="#9E79A6"/>
<path d="M64.6573 45.8554C63.9973 43.6704 63.1373 41.5279 61.9998 39.4504C60.0448 35.8779 57.5473 32.5154 54.5873 29.6729C54.3398 31.6029 54.2673 33.5554 54.3173 35.5154C52.3598 35.4654 50.4073 35.5379 48.4773 35.7854C51.3198 38.7454 54.6823 41.2428 58.2548 43.1978C60.3323 44.3353 62.4748 45.1954 64.6598 45.8554H64.6573Z" fill="#9E79A6"/>
<path d="M90.865 38.2427C90.865 38.2427 93.9175 32.3802 100.6 36.3177C100.6 36.3177 96.255 42.1752 90.865 38.2427Z" fill="#9E79A6"/>
<path d="M78.9525 26.3327C78.9525 26.3327 84.8175 23.2802 80.8775 16.5977C80.8775 16.5977 75.02 20.9427 78.9525 26.3327Z" fill="#9E79A6"/>
<path d="M45.1349 60.1503C45.1349 60.1503 42.0824 66.0128 35.3999 62.0753C35.3999 62.0753 39.7449 56.2178 45.1349 60.1503Z" fill="#9E79A6"/>
<path d="M57.0474 72.0605C57.0474 72.0605 51.1824 75.113 55.1224 81.7955C55.1224 81.7955 60.9799 77.4505 57.0474 72.0605Z" fill="#9E79A6"/>
<path d="M78.9525 72.0605C78.9525 72.0605 84.8175 75.113 80.8775 81.7955C80.8775 81.7955 75.02 77.4505 78.9525 72.0605Z" fill="#9E79A6"/>
<path d="M90.865 60.1503C90.865 60.1503 93.9175 66.0128 100.6 62.0753C100.6 62.0753 96.255 56.2178 90.865 60.1503Z" fill="#9E79A6"/>
<path d="M57.0474 26.3327C57.0474 26.3327 51.1824 23.2802 55.1224 16.5977C55.1224 16.5977 60.9799 20.9427 57.0474 26.3327Z" fill="#9E79A6"/>
<path d="M45.1349 38.2427C45.1349 38.2427 42.0824 32.3802 35.3999 36.3177C35.3999 36.3177 39.7449 42.1752 45.1349 38.2427Z" fill="#9E79A6"/>
</g>
<path d="M66.7025 31.4524C66.485 32.43 66.23 33.75 65.9375 35.535H66.2875C66.3625 35.535 66.4225 35.5949 66.4225 35.6699C66.4225 35.7449 66.3625 35.805 66.2875 35.805H65.895C65.79 36.45 65.6825 37.1474 65.57 37.9124C65.495 38.4174 65.425 38.9225 65.3575 39.4225C65.6275 39.3825 66.015 39.3624 66.34 39.5C66.41 39.5275 66.4425 39.6075 66.4125 39.6775C66.3925 39.73 66.34 39.7599 66.2875 39.7599C66.27 39.7599 66.2525 39.7575 66.235 39.75C65.935 39.625 65.555 39.6625 65.32 39.705C64.8375 43.345 64.5575 46.605 64.555 46.6425C64.5425 46.7825 64.425 46.8899 64.285 46.8899C64.2775 46.8899 64.27 46.8899 64.2625 46.8899C64.1125 46.8774 64.0025 46.7449 64.015 46.5975C64.02 46.5525 64.3975 42.1374 65.035 37.8349C66.3525 28.9199 67.0675 28.24 67.4375 28.16V20.2C67.3325 20.4475 67.1975 20.6775 67.03 20.86C66.775 21.135 66.475 21.275 66.1375 21.275C65.96 21.275 65.77 21.235 65.575 21.155C65.2475 22.06 64.87 23.22 64.435 24.7025C64.655 24.7025 64.8975 24.7075 65.1075 24.7775C65.1775 24.8025 65.2175 24.8775 65.1925 24.95C65.1725 25.0075 65.12 25.0425 65.065 25.0425C65.05 25.0425 65.0375 25.04 65.0225 25.035C64.84 24.975 64.6 24.975 64.3875 24.975C64.3775 24.975 64.3675 24.97 64.3575 24.97C64.2975 25.1775 64.235 25.3925 64.1725 25.6125C64.36 25.6225 64.535 25.6525 64.6825 25.7075C64.7525 25.735 64.7875 25.8125 64.7625 25.8825C64.7425 25.9375 64.69 25.97 64.635 25.97C64.62 25.97 64.6025 25.9675 64.5875 25.9625C64.4525 25.9125 64.2825 25.885 64.0975 25.8825C63.98 26.3025 63.8575 26.745 63.7325 27.2125C63.3625 28.585 62.95 30.295 62.54 32.1049C63.15 31.9424 63.91 32.2374 64.2575 32.6699C64.305 32.7274 64.295 32.815 64.235 32.86C64.21 32.88 64.18 32.8899 64.15 32.8899C64.11 32.8899 64.07 32.8724 64.045 32.84C63.7325 32.45 62.9825 32.1849 62.47 32.4174C62.44 32.555 62.4075 32.6925 62.3775 32.83C62.635 32.835 62.7525 32.8624 62.8575 32.8849C62.945 32.9049 63.0125 32.9199 63.16 32.9199C63.235 32.9199 63.295 32.9799 63.295 33.055C63.295 33.13 63.235 33.1899 63.16 33.1899C62.985 33.1899 62.895 33.17 62.8 33.15C62.695 33.1275 62.5875 33.1024 62.3175 33.0999C62.2875 33.2374 62.255 33.375 62.225 33.5125C62.25 33.5025 62.28 33.4949 62.31 33.5024C62.655 33.5899 63.055 33.59 63.4075 33.59C63.4825 33.59 63.5425 33.6499 63.5425 33.7249C63.5425 33.7999 63.4825 33.86 63.4075 33.86C63.04 33.86 62.6225 33.8599 62.245 33.7649C62.2175 33.7575 62.1975 33.7425 62.1775 33.7225C60.9875 39.11 59.89 44.7625 59.8725 44.845C59.8475 44.975 59.735 45.0649 59.6075 45.0649C59.59 45.0649 59.5725 45.065 59.555 45.06C59.4075 45.0325 59.3125 44.8899 59.34 44.7425C59.3625 44.625 61.645 32.865 63.21 27.0675C65.8375 17.3275 66.8925 17.3575 67.295 17.3725C67.3475 17.3725 67.3925 17.385 67.4375 17.3975V14.45C67.315 14.895 67.125 15.3175 66.8375 15.6425C66.4925 16.03 66.05 16.2275 65.5275 16.2275C65.3625 16.2275 65.1875 16.2025 65.0075 16.1625C64.385 17.505 63.6325 19.2575 62.7375 21.5175C62.935 21.5175 63.1425 21.53 63.325 21.59C63.395 21.6125 63.435 21.69 63.41 21.7625C63.39 21.82 63.3375 21.855 63.28 21.855C63.265 21.855 63.2525 21.855 63.2375 21.8475C63.0625 21.79 62.835 21.7875 62.63 21.7875C62.5475 21.9975 62.465 22.21 62.38 22.4275C62.5725 22.435 62.75 22.4625 62.9 22.52C62.97 22.545 63.005 22.625 62.98 22.695C62.96 22.75 62.9075 22.7825 62.8525 22.7825C62.8375 22.7825 62.82 22.78 62.805 22.7725C62.6625 22.72 62.4825 22.69 62.2875 22.69C62.285 22.69 62.2825 22.69 62.2775 22.69C62.1 23.1475 61.9175 23.6225 61.7275 24.12C60.8875 26.3275 60.045 28.6474 59.235 30.9799C59.68 30.9424 60.1025 31.0625 60.45 31.3325C60.51 31.3775 60.52 31.4625 60.475 31.5224C60.4475 31.5574 60.4075 31.575 60.3675 31.575C60.34 31.575 60.31 31.565 60.285 31.5475C59.8925 31.2425 59.475 31.2125 59.1375 31.2649C59.0975 31.3774 59.06 31.49 59.02 31.6025C59.2325 31.595 59.505 31.63 59.7 31.8175C59.755 31.87 59.755 31.9549 59.705 32.0099C59.6775 32.0374 59.6425 32.0525 59.6075 32.0525C59.5725 32.0525 59.54 32.0399 59.5125 32.0149C59.3525 31.8624 59.0875 31.865 58.9225 31.885C58.865 32.055 58.805 32.225 58.7475 32.395C58.755 32.395 58.76 32.395 58.7675 32.395C59.1125 32.4825 59.2475 32.4824 59.6075 32.4824C59.6825 32.4824 59.7425 32.5424 59.7425 32.6175C59.7425 32.6925 59.6825 32.7524 59.6075 32.7524C59.245 32.7524 59.08 32.7525 58.7025 32.6575C58.6875 32.655 58.675 32.6474 58.665 32.6399C57.1125 37.1899 55.7075 41.6975 54.6875 45.435C53.9225 48.24 54.9825 54.8149 56.0475 60C56.8575 63.9399 57.67 67.0775 57.6875 67.15L57.7275 67.3075L40.3 76.1575C40.2975 76.2725 40.2925 76.3849 40.2925 76.5C40.2925 79.395 41.225 82.07 42.8 84.2475C46.5675 81.6424 62.9625 71.5625 64.305 70.22C65.155 69.37 66.03 64.65 66.72 57.7425C66.9925 55.005 67.2375 51.9249 67.44 48.6049V31.26C67.305 31.4 67.095 31.4925 66.8975 31.4925C66.83 31.4925 66.7675 31.4775 66.7075 31.4575L66.7025 31.4524Z" fill="#F6E1C2"/>
<path d="M64.3024 70.2122C62.9599 71.5547 46.5649 81.6347 42.7974 84.2397C43.2349 84.8447 43.7224 85.4097 44.2524 85.9322C44.9849 86.6522 45.7999 87.2897 46.6849 87.8222C50.5374 85.0747 67.4349 74.8072 67.4349 68.2922V48.5947C67.2324 51.9147 66.9874 54.9947 66.7149 57.7322C66.0249 64.6422 65.1499 69.3622 64.2999 70.2097L64.3024 70.2122Z" fill="#F5BFA6"/>
<path d="M67.2575 17.7324C66.94 17.7324 66.175 19.3449 65.625 20.8799C65.64 20.8874 65.655 20.8899 65.67 20.8974C66.13 21.0849 66.5175 21.0149 66.83 20.6749C67.1625 20.3149 67.3575 19.7074 67.435 19.1749C67.4725 18.9224 67.485 18.6849 67.47 18.5024C67.4625 18.4074 67.4525 18.3224 67.4425 18.2499C67.4425 18.2499 67.44 18.2324 67.4375 18.2224C67.4375 18.2099 67.435 18.1999 67.4325 18.1899C67.3625 17.7499 67.255 17.7349 67.255 17.7349L67.2575 17.7324Z" fill="white"/>
<path d="M66.6349 15.455C67.2774 14.735 67.4449 13.3325 67.3299 12.335C67.3249 12.2925 67.3199 12.265 67.3124 12.24C67.2974 12.1825 67.2824 12.165 67.2824 12.165C66.9924 12.185 65.9399 14.0925 65.1074 15.905C65.1124 15.905 65.1174 15.905 65.1249 15.9075C65.7524 16.0275 66.2599 15.8775 66.6374 15.455H66.6349Z" fill="white"/>
<path d="M67.5276 28.773C67.5276 28.773 67.5276 28.758 67.5251 28.753C67.5151 28.683 67.5026 28.6255 67.4901 28.583C67.4776 28.5955 67.4651 28.6105 67.4526 28.628C67.4476 28.6355 67.4426 28.6455 67.4376 28.653C67.2301 28.973 66.9276 30.0155 66.7251 31.163C66.7376 31.173 66.7501 31.178 66.7651 31.183C66.9201 31.258 67.2001 31.1605 67.2901 31.008C67.3501 30.9055 67.4001 30.7805 67.4376 30.643C67.6101 30.043 67.5901 29.2005 67.5276 28.773Z" fill="white"/>
<path d="M69.2973 31.4524C69.5148 32.43 69.7698 33.75 70.0623 35.535H69.7123C69.6373 35.535 69.5773 35.5949 69.5773 35.6699C69.5773 35.7449 69.6373 35.805 69.7123 35.805H70.1048C70.2098 36.45 70.3173 37.1474 70.4298 37.9124C70.5048 38.4174 70.5748 38.9225 70.6423 39.4225C70.3723 39.3825 69.9848 39.3624 69.6598 39.5C69.5898 39.5275 69.5573 39.6075 69.5873 39.6775C69.6098 39.73 69.6598 39.7599 69.7123 39.7599C69.7298 39.7599 69.7473 39.7575 69.7648 39.75C70.0648 39.625 70.4448 39.6625 70.6798 39.705C71.1623 43.345 71.4423 46.605 71.4448 46.6425C71.4573 46.7825 71.5748 46.8899 71.7148 46.8899C71.7223 46.8899 71.7298 46.8899 71.7373 46.8899C71.8873 46.8774 71.9973 46.7449 71.9848 46.5975C71.9823 46.5525 71.6023 42.1374 70.9648 37.8349C69.6473 28.9199 68.9323 28.24 68.5623 28.16V20.2C68.6673 20.4475 68.8023 20.6775 68.9698 20.86C69.2248 21.135 69.5248 21.275 69.8598 21.275C70.0373 21.275 70.2273 21.235 70.4223 21.155C70.7498 22.06 71.1273 23.22 71.5623 24.7025C71.3423 24.7025 71.0998 24.7075 70.8898 24.7775C70.8198 24.8025 70.7798 24.8775 70.8048 24.95C70.8248 25.0075 70.8773 25.0425 70.9323 25.0425C70.9473 25.0425 70.9598 25.04 70.9748 25.035C71.1573 24.975 71.3973 24.975 71.6098 24.975C71.6198 24.975 71.6298 24.97 71.6398 24.97C71.6998 25.1775 71.7623 25.3925 71.8248 25.6125C71.6373 25.6225 71.4623 25.6525 71.3148 25.7075C71.2448 25.735 71.2098 25.8125 71.2348 25.8825C71.2548 25.9375 71.3073 25.97 71.3623 25.97C71.3798 25.97 71.3948 25.9675 71.4098 25.9625C71.5448 25.9125 71.7148 25.885 71.8998 25.8825C72.0198 26.3025 72.1398 26.745 72.2673 27.2125C72.6373 28.585 73.0498 30.295 73.4598 32.1049C72.8498 31.9424 72.0873 32.2374 71.7423 32.6699C71.6948 32.7274 71.7048 32.815 71.7623 32.86C71.7873 32.88 71.8173 32.8899 71.8473 32.8899C71.8873 32.8899 71.9273 32.8724 71.9523 32.84C72.2648 32.45 73.0148 32.1849 73.5273 32.4174C73.5598 32.555 73.5898 32.6925 73.6198 32.83C73.3623 32.835 73.2448 32.8624 73.1398 32.8849C73.0548 32.9049 72.9848 32.9199 72.8398 32.9199C72.7648 32.9199 72.7048 32.9799 72.7048 33.055C72.7048 33.13 72.7648 33.1899 72.8398 33.1899C73.0148 33.1899 73.1048 33.17 73.1998 33.15C73.3048 33.1275 73.4123 33.1024 73.6823 33.0999C73.7123 33.2374 73.7448 33.375 73.7748 33.5125C73.7473 33.5025 73.7198 33.4949 73.6898 33.5024C73.3448 33.5899 72.9448 33.59 72.5923 33.59C72.5173 33.59 72.4573 33.6499 72.4573 33.7249C72.4573 33.7999 72.5173 33.86 72.5923 33.86C72.9598 33.86 73.3773 33.8599 73.7548 33.7649C73.7823 33.7575 73.8023 33.7425 73.8223 33.7225C75.0123 39.11 76.1098 44.7625 76.1273 44.845C76.1523 44.975 76.2673 45.0649 76.3923 45.0649C76.4098 45.0649 76.4273 45.065 76.4448 45.06C76.5923 45.0325 76.6873 44.8899 76.6598 44.7425C76.6373 44.625 74.3548 32.865 72.7898 27.0675C70.1623 17.3275 69.1073 17.3575 68.7048 17.3725C68.6523 17.3725 68.6073 17.385 68.5623 17.3975V14.45C68.6848 14.895 68.8748 15.3175 69.1623 15.6425C69.5073 16.03 69.9498 16.2275 70.4723 16.2275C70.6348 16.2275 70.8123 16.2025 70.9923 16.1625C71.6123 17.505 72.3648 19.2575 73.2623 21.5175C73.0648 21.5175 72.8573 21.53 72.6748 21.59C72.6048 21.6125 72.5648 21.69 72.5898 21.7625C72.6098 21.82 72.6623 21.855 72.7198 21.855C72.7348 21.855 72.7473 21.855 72.7623 21.8475C72.9373 21.79 73.1648 21.7875 73.3698 21.7875C73.4523 21.9975 73.5348 22.21 73.6198 22.4275C73.4273 22.435 73.2498 22.4625 73.0998 22.52C73.0298 22.545 72.9948 22.625 73.0198 22.695C73.0398 22.75 73.0923 22.7825 73.1473 22.7825C73.1623 22.7825 73.1798 22.78 73.1948 22.7725C73.3373 22.72 73.5173 22.69 73.7123 22.69C73.7148 22.69 73.7173 22.69 73.7223 22.69C73.8998 23.1475 74.0823 23.6225 74.2723 24.12C75.1123 26.3275 75.9548 28.6474 76.7648 30.9799C76.3198 30.9424 75.8973 31.0625 75.5498 31.3325C75.4898 31.3775 75.4798 31.4625 75.5248 31.5224C75.5523 31.5574 75.5923 31.575 75.6323 31.575C75.6598 31.575 75.6898 31.565 75.7148 31.5475C76.1073 31.2425 76.5248 31.2125 76.8623 31.2649C76.9023 31.3774 76.9398 31.49 76.9798 31.6025C76.7673 31.595 76.4948 31.63 76.2973 31.8175C76.2448 31.87 76.2423 31.9549 76.2923 32.0099C76.3198 32.0374 76.3548 32.0525 76.3898 32.0525C76.4248 32.0525 76.4573 32.0399 76.4848 32.0149C76.6448 31.8624 76.9098 31.865 77.0748 31.885C77.1348 32.055 77.1923 32.225 77.2498 32.395C77.2423 32.395 77.2373 32.395 77.2298 32.395C76.8848 32.4825 76.7498 32.4824 76.3898 32.4824C76.3148 32.4824 76.2548 32.5424 76.2548 32.6175C76.2548 32.6925 76.3148 32.7524 76.3898 32.7524C76.7523 32.7524 76.9173 32.7525 77.2948 32.6575C77.3098 32.655 77.3223 32.6474 77.3323 32.6399C78.8848 37.1899 80.2898 41.6975 81.3098 45.435C82.0748 48.24 81.0148 54.8149 79.9498 60C79.1398 63.9399 78.3273 67.0775 78.3098 67.15L78.2673 67.3075L95.6948 76.1575C95.6973 76.2725 95.7048 76.3849 95.7048 76.5C95.7048 79.395 94.7723 82.07 93.1973 84.2475C89.4298 81.6424 73.0348 71.5625 71.6923 70.22C70.8423 69.37 69.9673 64.65 69.2798 57.7425C69.0073 55.005 68.7623 51.9249 68.5598 48.6049V31.26C68.6948 31.4 68.9048 31.4925 69.1023 31.4925C69.1698 31.4925 69.2348 31.4775 69.2923 31.4575L69.2973 31.4524Z" fill="#F6E1C2"/>
<path d="M71.6974 70.2122C73.0399 71.5547 89.4349 81.6347 93.2024 84.2397C92.7649 84.8447 92.2774 85.4097 91.7474 85.9322C91.0149 86.6522 90.1999 87.2897 89.3149 87.8222C85.4624 85.0747 68.5649 74.8072 68.5649 68.2922V48.5947C68.7674 51.9147 69.0124 54.9947 69.2849 57.7322C69.9749 64.6422 70.8499 69.3622 71.6974 70.2097V70.2122Z" fill="#F5BFA6"/>
<path d="M68.7424 17.7324C69.0599 17.7324 69.8249 19.3449 70.3749 20.8799C70.3599 20.8874 70.3449 20.8899 70.3299 20.8974C69.8699 21.0849 69.4824 21.0149 69.1699 20.6749C68.8374 20.3149 68.6424 19.7074 68.5649 19.1749C68.5274 18.9224 68.5149 18.6849 68.5299 18.5024C68.5374 18.4074 68.5474 18.3224 68.5574 18.2499C68.5574 18.2499 68.5599 18.2324 68.5599 18.2224C68.5624 18.2099 68.5649 18.1999 68.5649 18.1899C68.6349 17.7499 68.7424 17.7324 68.7424 17.7324Z" fill="white"/>
<path d="M69.3649 15.455C68.7224 14.735 68.5549 13.3325 68.6699 12.335C68.6749 12.2925 68.6799 12.265 68.6874 12.24C68.7024 12.1825 68.7174 12.165 68.7174 12.165C69.0074 12.185 70.0599 14.0925 70.8949 15.905C70.8899 15.905 70.8849 15.905 70.8774 15.9075C70.2499 16.0275 69.7424 15.8775 69.3674 15.455H69.3649Z" fill="white"/>
<path d="M68.4724 28.773C68.4724 28.773 68.4724 28.758 68.4749 28.753C68.4849 28.683 68.4974 28.6255 68.5099 28.583C68.5224 28.5955 68.5349 28.6105 68.5474 28.628C68.5524 28.6355 68.5574 28.6455 68.5624 28.653C68.7699 28.973 69.0699 30.0155 69.2749 31.163C69.2649 31.173 69.2499 31.178 69.2374 31.183C69.0824 31.258 68.8024 31.1605 68.7124 31.008C68.6524 30.9055 68.6024 30.7805 68.5649 30.643C68.3924 30.043 68.4099 29.198 68.4749 28.773H68.4724Z" fill="white"/>
<path d="M55.3199 89.1074L55.2949 90.5824H55.3099V97.8374C55.3099 98.9024 55.4949 99.6774 55.8624 100.162C56.2799 100.695 57.0099 100.987 58.0499 101.035C58.7124 101.067 59.3774 100.85 60.0399 100.385C60.6299 99.9749 61.1174 99.4549 61.5024 98.8249C61.9199 98.1374 62.1299 97.4649 62.1299 96.8099V92.1799L64.6724 93.0649V105.642C64.6724 107.175 63.9674 108.422 62.5599 109.39C61.2574 110.282 59.7299 110.73 57.9774 110.73C55.0124 110.73 52.9049 109.922 51.6524 108.31C51.1449 107.655 50.8899 107.095 50.8899 106.627C50.8974 105.602 51.4724 104.745 52.6099 104.047C53.6174 103.432 54.6624 103.127 55.7424 103.127L57.3024 105.215C55.8949 105.312 54.6324 105.612 53.5199 106.112C52.7899 106.44 52.4274 106.862 52.4274 107.377C52.5174 108.122 53.0774 108.782 54.1099 109.355C54.7249 109.7 55.5174 109.87 56.4924 109.87C58.7274 109.87 60.4149 109.145 61.5524 107.695C62.0924 107.007 62.3624 106.205 62.3624 105.287V100.287C61.8299 101.155 60.4099 101.59 58.0999 101.59C56.1599 101.59 54.6899 100.925 53.6899 99.5974C53.1974 98.9499 52.9524 98.2124 52.9524 97.3849V90.5849H51.2074V89.1099H55.3199V89.1074Z" fill="#461C47"/>
<path d="M78.5973 90.5828H75.8323V93.9653C75.8323 94.0403 76.1598 94.4028 76.8148 95.0603C77.3148 95.6678 77.5648 96.5354 77.5648 97.6679C77.5648 99.5454 76.7323 100.935 75.0723 101.835C74.2873 102.26 73.4298 102.475 72.5048 102.475C71.1623 102.475 69.7773 101.883 68.3523 100.695C66.8623 99.4504 66.1173 98.1004 66.1173 96.6429C66.1173 95.9729 66.3598 95.2754 66.8423 94.5554C67.2773 93.9079 67.7998 93.3729 68.4148 92.9454C69.1523 92.4379 70.0398 92.1829 71.0798 92.1829C71.6523 92.1829 72.4998 92.3353 73.6223 92.6378C73.6723 92.6378 73.6948 92.6053 73.6948 92.5378V90.5854H65.2673V89.1104H78.5948V90.5854L78.5973 90.5828ZM75.7598 96.0278C75.7598 94.8703 75.2523 94.0954 74.2373 93.7029C73.8598 93.5554 73.5373 93.4804 73.2673 93.4804C72.2523 93.4804 71.1598 93.9354 69.9873 94.8454C68.6198 95.9104 67.9348 97.2704 67.9348 98.9179C67.9348 99.6879 68.3773 100.32 69.2623 100.813C69.6623 101.035 70.0698 101.145 70.4773 101.145C71.4923 101.145 72.6073 100.653 73.8173 99.6679C75.1123 98.6179 75.7573 97.4054 75.7573 96.0254L75.7598 96.0278Z" fill="#461C47"/>
<path d="M83.4248 107.177C83.4248 107.987 82.8873 108.685 81.8148 109.265C81.3148 109.535 80.7748 109.67 80.1923 109.67C79.5198 109.67 78.8398 109.44 78.1523 108.982C77.4648 108.522 76.9898 107.987 76.7273 107.372L78.6323 105.897C78.7873 107.977 79.3698 109.017 80.3773 109.017C80.9598 109.017 81.2498 108.672 81.2498 107.985V94.1024H83.4248V107.175V107.177ZM85.1073 90.5824H77.7123V89.1074H85.1073V90.5824Z" fill="#461C47"/>
<path d="M96.5323 90.5823H88.3523V92.5598C88.3848 92.5598 88.4173 92.5773 88.4498 92.6098C88.4823 92.6423 88.5123 92.6598 88.5348 92.6598C88.4698 92.6598 88.4323 92.6548 88.4248 92.6473C88.4248 92.6073 89.0348 92.4748 90.2548 92.2548C90.7048 92.1723 91.1523 92.1323 91.5948 92.1323C93.4373 92.1323 94.6198 92.6473 95.1448 93.6798C95.4973 94.3673 95.6723 95.7548 95.6723 97.8448V102.575C95.4998 102.51 94.8498 102.242 93.7198 101.777C93.7198 101.515 93.6673 101.347 93.5598 101.275C93.1248 101.53 92.7698 101.722 92.4923 101.852C91.6073 102.27 90.5798 102.48 89.4098 102.48C87.7973 102.48 86.5523 101.972 85.6748 100.957C85.2498 100.465 85.0348 99.9173 85.0348 99.3123C85.0348 98.6323 85.3698 97.9573 86.0423 97.2848C87.3448 95.9823 88.9623 95.3323 90.8948 95.3323C92.0648 95.3323 93.0073 95.6023 93.7198 96.1423V95.0123C93.3598 94.5523 93.0098 94.2473 92.6698 94.0898C92.3298 93.9348 91.8648 93.8648 91.2748 93.8823C89.9573 93.9073 88.7473 94.1473 87.6523 94.6073C87.1598 94.8123 86.6823 94.9973 86.2148 95.1598V94.2473C86.3223 94.1573 86.4773 94.0223 86.6823 93.8398C86.7148 93.7998 86.7348 93.7748 86.7448 93.7648V90.5873H84.2273V89.1123H96.5348V90.5873L96.5323 90.5823ZM93.7198 98.3698C93.7198 98.0098 93.2898 97.6873 92.4298 97.3998C91.7173 97.1623 91.1223 97.0448 90.6498 97.0448C88.9223 97.0448 87.5373 97.6673 86.4973 98.9123C86.0798 99.4123 85.8698 99.8223 85.8698 100.14C86.0423 100.737 86.7173 101.037 87.8973 101.037C89.4198 101.037 90.8123 100.657 92.0748 99.8948C93.1723 99.2323 93.7198 98.7248 93.7198 98.3723V98.3698Z" fill="#461C47"/>
<path d="M109.552 90.5824H96.3474V89.1074H109.552V90.5824ZM106.912 95.9874C106.912 94.0224 105.982 93.0399 104.125 93.0399C102.75 93.0399 101.597 93.7599 100.672 95.2024C99.8524 96.4799 99.4449 97.8399 99.4449 99.2799V102.855L97.4299 101.797V92.5599H99.5424V94.0224L100.635 93.1999C101.6 92.4699 102.62 92.1074 103.692 92.1074C105.15 92.1074 106.357 92.6724 107.315 93.8024C108.215 94.8674 108.665 96.1399 108.665 97.6224C108.665 99.4824 107.88 101.267 106.307 102.977L103.937 101.492C104.675 100.765 105.3 100.092 105.817 99.4774C106.547 98.6099 106.91 97.4474 106.91 95.9899L106.912 95.9874Z" fill="#461C47"/>
<path d="M58.1924 90.6024C56.7424 90.6024 51.8124 90.6449 51.3249 90.6449H49.8449V102.76C49.8024 102.782 49.7599 102.807 49.7199 102.83C49.4099 102.542 49.0849 102.27 48.7949 101.965C47.8199 100.945 47.3332 99.7365 47.3349 98.3399C47.3349 95.9674 47.3349 93.5924 47.3349 91.2199C47.3349 91.0324 47.3349 90.8474 47.3349 90.6324H45.6124V102.767C45.5699 102.79 45.5274 102.812 45.4849 102.832C45.1874 102.555 44.8949 102.275 44.5949 102.005C43.5199 101.037 42.8699 99.9374 43.0899 98.3874C43.2274 97.4149 43.1149 96.4099 43.1149 95.3474C42.6149 95.3474 42.1624 95.3799 41.7199 95.3349C41.4649 95.3074 41.1574 95.2174 40.9874 95.0449C40.2599 94.3049 39.5724 93.5249 38.8699 92.7599C38.9049 92.6974 38.9374 92.6374 38.9724 92.5749C39.3974 92.5749 39.8224 92.5749 40.2474 92.5749C40.5624 92.5749 40.8749 92.5749 41.1899 92.5749C41.8624 92.5699 42.5749 92.4424 43.0724 93.1349V90.5999C42.0774 90.8174 41.3999 89.6299 40.9749 89.1149C41.0074 89.0674 41.0399 89.0224 41.0724 88.9749C41.9724 88.9749 42.8724 88.9874 43.7699 88.9649C43.9824 88.9599 44.1899 88.8424 44.3749 88.7849C44.7124 88.8474 45.0524 88.9574 45.3949 88.9649C46.3874 88.9899 47.3824 88.9724 48.4149 88.9724C48.4599 88.8324 48.5049 88.6974 48.5474 88.5674C48.6024 88.5724 48.6524 88.5624 48.6674 88.5799C48.9899 88.9324 49.3899 88.9899 49.8474 88.9799C50.9074 88.9524 56.3174 88.9724 57.4999 88.9724L58.1899 90.6024H58.1924Z" fill="#461C47"/>
<path d="M35.8474 88.0178C34.0574 88.0478 32.5399 88.6278 31.4974 90.2778C31.3599 90.1778 31.2049 90.0978 31.0949 89.9778C30.4724 89.2953 29.8599 88.6053 29.2449 87.9178C29.0399 87.6903 29.0499 87.4728 29.2049 87.2078C30.1449 85.5728 33.5249 84.3978 35.2924 86.0053C36.3024 86.9253 37.1924 87.9928 38.0524 89.0603C38.6299 89.7803 38.5949 90.6628 38.2574 91.5028C38.0974 91.9028 37.8599 92.2753 37.5949 92.7753C37.6799 92.8353 37.8474 92.9078 37.9574 93.0303C38.9224 94.1278 39.9999 95.1528 40.8099 96.3578C42.6624 99.1078 41.8524 102.93 39.0449 104.683C36.3799 106.345 33.4199 106.883 30.6499 105.233C27.2074 103.183 24.7824 100.188 24.2399 96.0303C24.0224 94.3728 24.5499 92.9303 25.9324 91.8753C26.2724 91.6153 26.5524 91.5653 26.8699 91.9303C27.5499 92.7178 28.2599 93.4803 29.0024 94.3003C27.5999 95.0753 26.9074 96.2053 26.7474 97.6378C26.5674 99.2553 27.0649 100.745 27.7949 102.155C27.9199 102.395 28.2799 102.538 28.5574 102.67C31.2524 103.945 35.2249 103.345 37.3699 101.273C39.0924 99.6103 39.6224 97.5653 39.0599 95.2328C38.9649 94.8378 38.7549 94.5853 38.3724 94.4553C38.0424 94.3453 37.7174 94.2153 37.3874 94.1103C36.7724 93.9153 36.1924 93.8903 35.7349 94.4628C35.4949 94.7603 35.2549 94.7328 35.0049 94.4478C34.3824 93.7428 33.7499 93.0453 33.1224 92.3453C32.9024 92.1003 32.9474 91.9328 33.1974 91.7028C33.8874 91.0678 34.5924 90.4303 35.1899 89.7128C35.5599 89.2678 35.7474 88.6678 36.0174 88.1378C35.9624 88.0978 35.9049 88.0553 35.8499 88.0153L35.8474 88.0178Z" fill="#461C47"/>
<path d="M82.2824 93.2196C82.9134 93.2196 83.4249 92.7081 83.4249 92.0771C83.4249 91.4461 82.9134 90.9346 82.2824 90.9346C81.6514 90.9346 81.1399 91.4461 81.1399 92.0771C81.1399 92.7081 81.6514 93.2196 82.2824 93.2196Z" fill="#461C47"/>
</g>
<g filter="url(#filter0_f_57_6448)">
<ellipse cx="68" cy="137.5" rx="57.5" ry="6.5" fill="black" fill-opacity="0.4"/>
</g>
<defs>
<filter id="filter0_f_57_6448" x="0.5" y="121" width="135" height="33" filterUnits="userSpaceOnUse" color-interpolation-filters="sRGB">
<feFlood flood-opacity="0" result="BackgroundImageFix"/>
<feBlend mode="normal" in="SourceGraphic" in2="BackgroundImageFix" result="shape"/>
<feGaussianBlur stdDeviation="5" result="effect1_foregroundBlur_57_6448"/>
</filter>
<clipPath id="clip0_57_6448">
<rect width="125" height="125" fill="white" transform="translate(5.5)"/>
</clipPath>
</defs>
</svg>
