<svg width="16" height="16" viewBox="0 0 16 16" fill="none" xmlns="http://www.w3.org/2000/svg">
<path opacity="0.6" d="M10.2222 12.8C9.6 12.8 9.07407 12.6067 8.64444 12.22C8.21481 11.8333 8 11.36 8 10.8C8 10.24 8.21481 9.76667 8.64444 9.38C9.07407 8.99333 9.6 8.8 10.2222 8.8C10.8444 8.8 11.3704 8.99333 11.8 9.38C12.2296 9.76667 12.4444 10.24 12.4444 10.8C12.4444 11.36 12.2296 11.8333 11.8 12.22C11.3704 12.6067 10.8444 12.8 10.2222 12.8ZM1.77778 16C1.28889 16 0.870518 15.8435 0.522667 15.5304C0.174815 15.2173 0.000592593 14.8405 0 14.4V3.2C0 2.76 0.174222 2.38347 0.522667 2.0704C0.871111 1.75733 1.28948 1.60053 1.77778 1.6H2.66667V0H4.44444V1.6H11.5556V0H13.3333V1.6H14.2222C14.7111 1.6 15.1298 1.7568 15.4782 2.0704C15.8267 2.384 16.0006 2.76053 16 3.2V14.4C16 14.84 15.8261 15.2168 15.4782 15.5304C15.1304 15.844 14.7117 16.0005 14.2222 16H1.77778ZM1.77778 14.4H14.2222V6.4H1.77778V14.4Z" fill="white"/>
</svg>
