<svg width="31" height="27" viewBox="0 0 31 27" fill="none" xmlns="http://www.w3.org/2000/svg">
<path fill-rule="evenodd" clip-rule="evenodd" d="M12.167 27H18.833C23.5145 27 25.856 27 27.5375 25.8975C28.263 25.422 28.8879 24.8083 29.3765 24.0915C30.5 22.4415 30.5 20.142 30.5 15.546C30.5 10.9485 30.5 8.65055 29.3765 7.00055C28.8879 6.28372 28.2631 5.67006 27.5375 5.19456C26.4575 4.48506 25.1045 4.23156 23.033 4.14156C22.0445 4.14156 21.194 3.40656 21.0005 2.45406C20.8526 1.75637 20.4684 1.13112 19.9128 0.683995C19.3571 0.236868 18.6642 -0.00471721 17.951 6.9796e-05H13.049C11.567 6.9796e-05 10.2905 1.02757 9.9995 2.45406C9.806 3.40656 8.9555 4.14156 7.967 4.14156C5.897 4.23156 4.544 4.48656 3.4625 5.19456C2.73743 5.67015 2.11306 6.28381 1.625 7.00055C0.5 8.65055 0.5 10.9485 0.5 15.546C0.5 20.142 0.5 22.44 1.6235 24.0915C2.1095 24.8055 2.7335 25.419 3.4625 25.8975C5.144 27 7.4855 27 12.167 27ZM15.5 9.40955C12.0485 9.40955 9.2495 12.156 9.2495 15.5445C9.2495 18.9345 12.0485 21.6825 15.5 21.6825C18.9515 21.6825 21.7505 18.9345 21.7505 15.546C21.7505 12.156 18.9515 9.40955 15.5 9.40955ZM15.5 11.8635C13.43 11.8635 11.75 13.512 11.75 15.546C11.75 17.5785 13.43 19.227 15.5 19.227C17.57 19.227 19.25 17.5785 19.25 15.546C19.25 13.512 17.57 11.8635 15.5 11.8635ZM22.583 10.6365C22.583 9.95854 23.1425 9.40955 23.834 9.40955H25.499C26.189 9.40955 26.75 9.95854 26.75 10.6365C26.7468 10.9649 26.6135 11.2785 26.3792 11.5086C26.1449 11.7387 25.8288 11.8663 25.5005 11.8635H23.834C23.6713 11.8651 23.5099 11.8346 23.3589 11.7738C23.208 11.713 23.0705 11.6231 22.9544 11.5091C22.8382 11.3952 22.7456 11.2595 22.6819 11.1098C22.6182 10.9601 22.5846 10.7993 22.583 10.6365Z" fill="white" fill-opacity="0.3"/>
</svg>
