<svg width="18" height="19" viewBox="0 0 18 19" fill="none" xmlns="http://www.w3.org/2000/svg">
<path fill-rule="evenodd" clip-rule="evenodd" d="M5 12.1147L6.37642 13.5L8.99899 10.8606L11.6147 13.5L13 12.1236L10.3552 9.49565L13 6.8338L11.6747 5.5L9.00076 8.14991L6.3338 5.5L5 6.82531L7.6446 9.49388L5 12.1147Z" fill="white"/>
<path fill-rule="evenodd" clip-rule="evenodd" d="M0 3.77273C0 2.90475 0.344804 2.07232 0.95856 1.45856C1.57232 0.844804 2.40475 0.5 3.27273 0.5H14.7273C15.5953 0.5 16.4277 0.844804 17.0414 1.45856C17.6552 2.07232 18 2.90475 18 3.77273V15.2273C18 16.0953 17.6552 16.9277 17.0414 17.5414C16.4277 18.1552 15.5953 18.5 14.7273 18.5H3.27273C2.40475 18.5 1.57232 18.1552 0.95856 17.5414C0.344804 16.9277 0 16.0953 0 15.2273V3.77273ZM3.27273 2.13636H14.7273C15.1613 2.13636 15.5775 2.30877 15.8844 2.61564C16.1912 2.92252 16.3636 3.33874 16.3636 3.77273V15.2273C16.3636 15.6613 16.1912 16.0775 15.8844 16.3844C15.5775 16.6912 15.1613 16.8636 14.7273 16.8636H3.27273C2.83874 16.8636 2.42252 16.6912 2.11564 16.3844C1.80877 16.0775 1.63636 15.6613 1.63636 15.2273V3.77273C1.63636 3.33874 1.80877 2.92252 2.11564 2.61564C2.42252 2.30877 2.83874 2.13636 3.27273 2.13636Z" fill="white"/>
</svg>
