<svg width="16" height="16" viewBox="0 0 16 16" fill="none" xmlns="http://www.w3.org/2000/svg">
<path d="M10.3149 2.08009C10.7937 1.60146 11.443 1.33264 12.12 1.33276C12.797 1.33289 13.4463 1.60195 13.9249 2.08075C14.4035 2.55956 14.6723 3.20888 14.6722 3.88589C14.6721 4.5629 14.403 5.21213 13.9242 5.69075L13.6122 6.00275L10.0029 2.39342L10.3149 2.08009ZM9.06022 3.33609L2.20022 10.1948C2.10763 10.2878 2.04455 10.406 2.01889 10.5348L1.34689 13.8681C1.32496 13.9758 1.33002 14.0873 1.36161 14.1926C1.39321 14.2979 1.45035 14.3938 1.52796 14.4716C1.60557 14.5495 1.70123 14.607 1.80642 14.6389C1.91162 14.6709 2.02308 14.6763 2.13089 14.6548L5.46955 13.9881C5.59842 13.9621 5.71671 13.8985 5.80955 13.8054L12.6696 6.94542L9.06022 3.33609Z" fill="white"/>
</svg>
