<svg width="21" height="19" viewBox="0 0 21 19" fill="none" xmlns="http://www.w3.org/2000/svg">
<path d="M3.57215 4.10446C4.46586 4.10446 5.18992 3.37421 5.18992 2.47422C5.18992 1.57325 4.46586 0.843636 3.57215 0.843636C2.67812 0.843636 1.9541 1.57325 1.9541 2.47422C1.95406 3.37425 2.67812 4.10446 3.57215 4.10446Z" fill="white"/>
<path d="M10.4886 8.42658V8.42902C10.4925 8.42902 10.4961 8.4278 10.5 8.4278C10.504 8.4278 10.5076 8.42902 10.5115 8.42902V8.42658C11.1195 8.4141 11.6085 7.91579 11.6085 7.30072C11.6085 6.68475 11.1194 6.18675 10.5115 6.17423V6.17179C10.5076 6.17179 10.504 6.17301 10.5 6.17301C10.4961 6.17301 10.4925 6.17179 10.4886 6.17179V6.17423C9.88063 6.18675 9.3916 6.68475 9.3916 7.30072C9.3916 7.91575 9.88063 8.41406 10.4886 8.42658Z" fill="white"/>
<path d="M17.4283 4.10446C18.3223 4.10446 19.0464 3.37421 19.0464 2.47422C19.0464 1.57325 18.3223 0.843636 17.4283 0.843636C16.5346 0.843636 15.8105 1.57325 15.8105 2.47422C15.8105 3.37425 16.5346 4.10446 17.4283 4.10446Z" fill="white"/>
<path d="M20.5 12.0065V6.52654C20.5 5.73627 19.6471 4.87679 18.8632 4.87679H18.6366L17.5109 6.01119L16.4088 4.90056C15.712 5.00326 15.0977 5.43847 14.7714 6.0822L13.463 9.9386C13.418 10.027 13.3342 10.0898 13.2368 10.1071C13.1394 10.1245 13.0396 10.0949 12.9667 10.027L12.1529 9.31684C11.9094 9.08975 11.59 8.96359 11.2582 8.96359H10.5H9.7418C9.41 8.96359 9.09062 9.08979 8.84715 9.31684L8.03328 10.027C7.96039 10.0949 7.86055 10.1245 7.7632 10.1071C7.66578 10.0897 7.58203 10.027 7.53695 9.9386L6.22859 6.0822C5.85359 5.3425 5.09867 4.87679 4.27422 4.87679H3.55531H2.13684C1.35289 4.87679 0.5 5.73627 0.5 6.52654V12.0065C0.5 12.4015 0.817578 12.7218 1.20957 12.7218C1.4025 12.7218 1.20957 12.7218 1.70496 12.7218L1.97473 17.3953C1.97473 17.8156 2.31316 18.1563 2.73023 18.1563C2.90625 18.1563 3.23078 18.1563 3.55531 18.1563C3.8798 18.1563 4.20434 18.1563 4.38035 18.1563C4.79742 18.1563 5.13586 17.8156 5.13586 17.3953L5.40562 12.7218L5.40227 9.3851C5.40227 9.33239 5.43797 9.28696 5.48906 9.27417C5.5402 9.26197 5.5925 9.28633 5.61641 9.3333L6.65441 11.9078C6.77961 12.154 7.01191 12.3271 7.2823 12.3756C7.55266 12.4241 7.83 12.3424 8.03176 12.1547L9.02496 11.4174C9.05824 11.3866 9.10633 11.3787 9.14746 11.3961C9.18891 11.4146 9.21551 11.4558 9.21551 11.5009L9.21918 14.3945L9.40578 17.6297C9.40578 17.9205 9.64016 18.1564 9.92902 18.1564C10.0506 18.1564 10.2753 18.1564 10.5 18.1564C10.7248 18.1564 10.9495 18.1564 11.0711 18.1564C11.3599 18.1564 11.5943 17.9205 11.5943 17.6297L11.7809 14.3945L11.7845 11.5009C11.7845 11.4558 11.8111 11.4146 11.8525 11.3961C11.8937 11.3787 11.9418 11.3866 11.975 11.4174L12.9682 12.1547C13.17 12.3424 13.4473 12.4241 13.7177 12.3756C13.9881 12.3272 14.2204 12.1541 14.3456 11.9078L15.3836 9.3333C15.4075 9.28637 15.4598 9.26197 15.5109 9.27417C15.562 9.28696 15.5977 9.33239 15.5977 9.3851L15.5965 10.6578L14.5074 14.0687C14.4816 14.1494 14.4956 14.2378 14.5452 14.3064C14.5948 14.375 14.674 14.4155 14.7581 14.4155H15.6921L15.8641 17.3953C15.8641 17.8156 16.2026 18.1564 16.6196 18.1564C16.7957 18.1564 17.1202 18.1564 17.4447 18.1564C17.7692 18.1564 18.0937 18.1564 18.2698 18.1564C18.6868 18.1564 19.0252 17.8156 19.0252 17.3953L19.1973 14.4155H20.2293C20.3134 14.4155 20.3926 14.375 20.4422 14.3064C20.4918 14.2378 20.5057 14.1494 20.48 14.0687L20.0352 12.6755C20.3061 12.5746 20.5 12.3144 20.5 12.0065ZM3.83688 5.68509V8.62135H2.97613V5.68509H3.83688Z" fill="white"/>
</svg>
