<svg width="29" height="29" viewBox="0 0 29 29" fill="none" xmlns="http://www.w3.org/2000/svg">
<g clip-path="url(#clip0_2474_2362)">
<path d="M13.0923 13.263C13.0943 12.8324 13.2364 12.4142 13.497 12.0721C13.8482 11.6185 14.2487 11.2058 14.6912 10.8414C15.0904 10.4969 15.4564 10.1154 15.7844 9.70203C15.9907 9.41165 16.0975 9.06198 16.0889 8.70549C16.0939 8.48722 16.0549 8.27021 15.9743 8.0674C15.8938 7.86459 15.7733 7.68014 15.6201 7.52511C15.4669 7.37007 15.2842 7.24765 15.0828 7.16508C14.8814 7.08252 14.6654 7.04153 14.4479 7.0446C14.0137 7.04036 13.594 7.20153 13.2736 7.49556C12.9002 7.8565 12.628 8.30953 12.4841 8.80929L10.7031 8.02954C10.9296 7.15934 11.43 6.38576 12.1299 5.82388C12.8204 5.30289 13.6662 5.03158 14.5298 5.05406C15.1867 5.04719 15.8357 5.19841 16.4225 5.49503C16.9817 5.77683 17.454 6.20599 17.7888 6.73653C18.1282 7.27675 18.3041 7.90417 18.2952 8.54273C18.3025 9.11784 18.1482 9.68338 17.85 10.1746C17.4731 10.7526 17.0164 11.274 16.4936 11.7233C16.0945 12.0631 15.719 12.4299 15.3698 12.8212C15.1695 13.0513 15.0582 13.346 15.0561 13.6516C15.0618 13.8389 15.0896 14.0248 15.1389 14.2055H13.3182C13.1763 13.9113 13.0992 13.5898 13.0923 13.263ZM14.3064 19.0495C14.0985 19.0547 13.8917 19.0175 13.6986 18.94C13.5055 18.8625 13.3302 18.7463 13.1833 18.5986C13.0339 18.4521 12.9163 18.2763 12.8378 18.0821C12.7594 17.8879 12.7218 17.6795 12.7274 17.47C12.7224 17.259 12.7603 17.0492 12.8387 16.8533C12.9171 16.6574 13.0344 16.4796 13.1833 16.3306C13.3288 16.1803 13.5037 16.0617 13.6969 15.9823C13.8901 15.9029 14.0976 15.8643 14.3064 15.8689C14.5164 15.8644 14.7251 15.9029 14.9199 15.9819C15.1146 16.061 15.2913 16.179 15.4391 16.3288C15.5869 16.4786 15.7028 16.657 15.7796 16.8532C15.8565 17.0494 15.8928 17.2593 15.8862 17.47C15.8918 17.6794 15.8542 17.8877 15.7759 18.0819C15.6976 18.2761 15.5802 18.452 15.431 18.5986C15.2838 18.7463 15.1082 18.8624 14.9148 18.9399C14.7215 19.0174 14.5145 19.0547 14.3064 19.0495Z" fill="white"/>
<path d="M1.71986 28.5497C1.54076 28.5495 1.36389 28.5099 1.2018 28.4334C0.991255 28.336 0.813117 28.1798 0.68867 27.9835C0.564224 27.7872 0.498733 27.5591 0.500019 27.3264V3.51601C0.500895 2.72956 0.812621 1.97553 1.3668 1.41943C1.92099 0.863321 2.67236 0.550531 3.4561 0.549652H25.5439C26.3277 0.550531 27.0791 0.863321 27.6332 1.41943C28.1874 1.97553 28.4991 2.72956 28.5 3.51601V20.4703C28.4989 21.2566 28.1871 22.0104 27.6329 22.5663C27.0788 23.1222 26.3275 23.4349 25.5439 23.4358H9.01571C8.5205 23.436 8.04106 23.6106 7.66098 23.9291L2.49695 28.264C2.27925 28.4476 2.00423 28.5487 1.71986 28.5497ZM3.4561 2.21054C3.1112 2.21098 2.78056 2.34864 2.53668 2.59337C2.2928 2.83809 2.1556 3.16992 2.15516 3.51601V26.3847L6.5992 22.6552C7.27725 22.0871 8.13238 21.7756 9.01571 21.7749H25.5439C25.8888 21.7747 26.2194 21.6372 26.4633 21.3926C26.7072 21.148 26.8444 20.8163 26.8449 20.4703V3.51601C26.8444 3.16992 26.7072 2.83809 26.4634 2.59337C26.2195 2.34864 25.8888 2.21098 25.5439 2.21054H3.4561Z" fill="white"/>
</g>
<defs>
<clipPath id="clip0_2474_2362">
<rect width="28" height="28" fill="white" transform="translate(0.5 0.5)"/>
</clipPath>
</defs>
</svg>
