<svg width="21" height="21" viewBox="0 0 21 21" fill="none" xmlns="http://www.w3.org/2000/svg">
<path d="M1.50003 11.5001H2.50003V18.5001C2.50003 19.6031 3.39703 20.5001 4.50003 20.5001H16.5C17.603 20.5001 18.5 19.6031 18.5 18.5001V11.5001H19.5C19.6978 11.5001 19.8911 11.4414 20.0555 11.3315C20.2199 11.2216 20.348 11.0655 20.4237 10.8828C20.4994 10.7001 20.5192 10.499 20.4806 10.3051C20.442 10.1111 20.3468 9.93295 20.207 9.7931L11.207 0.793102C11.1142 0.700156 11.004 0.626418 10.8827 0.576108C10.7614 0.525797 10.6314 0.499901 10.5 0.499901C10.3687 0.499901 10.2387 0.525797 10.1173 0.576108C9.99602 0.626418 9.88582 0.700156 9.79303 0.793102L0.793031 9.7931C0.653222 9.93295 0.558015 10.1111 0.519448 10.3051C0.48088 10.499 0.500683 10.7001 0.576353 10.8828C0.652023 11.0655 0.780163 11.2216 0.944573 11.3315C1.10898 11.4414 1.30228 11.5001 1.50003 11.5001ZM8.50003 18.5001V13.5001H12.5V18.5001H8.50003ZM10.5 2.9141L16.5 8.9141V13.5001L16.501 18.5001H14.5V13.5001C14.5 12.3971 13.603 11.5001 12.5 11.5001H8.50003C7.39703 11.5001 6.50003 12.3971 6.50003 13.5001V18.5001H4.50003V8.9141L10.5 2.9141Z" fill="white"/>
</svg>
