<svg width="31" height="31" viewBox="0 0 31 31" fill="none" xmlns="http://www.w3.org/2000/svg">
<path d="M22.5551 20.474V18.05C22.5551 17.7572 22.4388 17.4764 22.2318 17.2694C22.0247 17.0624 21.7439 16.9461 21.4512 16.9461H20.2049C19.985 16.9457 19.7702 16.8799 19.5879 16.7571C19.4055 16.6343 19.2638 16.46 19.1807 16.2564L19.1748 16.2424C19.0896 16.0396 19.0664 15.8161 19.1081 15.6001C19.1499 15.3842 19.2546 15.1854 19.4092 15.0289L20.2881 14.15C20.3906 14.0475 20.472 13.9259 20.5275 13.7919C20.583 13.658 20.6115 13.5145 20.6115 13.3695C20.6115 13.2246 20.583 13.081 20.5275 12.9471C20.472 12.8132 20.3906 12.6915 20.2881 12.5891L18.5783 10.8711C18.4759 10.7685 18.3542 10.6872 18.2203 10.6317C18.0864 10.5762 17.9428 10.5476 17.7979 10.5476C17.6529 10.5476 17.5093 10.5762 17.3754 10.6317C17.2415 10.6872 17.1198 10.7685 17.0174 10.8711L16.1385 11.75C15.982 11.9046 15.7832 12.0093 15.5673 12.051C15.3513 12.0927 15.1278 12.0695 14.925 11.9844L14.9109 11.9785C14.7076 11.8955 14.5334 11.7539 14.4106 11.5718C14.2879 11.3896 14.222 11.1751 14.2213 10.9555V9.71386C14.2213 9.42109 14.105 9.1403 13.898 8.93328C13.6909 8.72626 13.4102 8.60995 13.1174 8.60995H10.691C10.3982 8.60995 10.1175 8.72626 9.91044 8.93328C9.70342 9.1403 9.58711 9.42109 9.58711 9.71386V10.9602C9.58668 11.18 9.52089 11.3948 9.39808 11.5772C9.27528 11.7595 9.10103 11.9013 8.89746 11.9844L8.8834 11.9902C8.68061 12.0754 8.45712 12.0986 8.24115 12.0569C8.02519 12.0152 7.82641 11.9104 7.66993 11.7559L6.79102 10.8769C6.68855 10.7744 6.56689 10.6931 6.43297 10.6376C6.29905 10.5821 6.15551 10.5535 6.01055 10.5535C5.86559 10.5535 5.72205 10.5821 5.58813 10.6376C5.45421 10.6931 5.33255 10.7744 5.23008 10.8769L3.51387 12.5867C3.41133 12.6892 3.32998 12.8108 3.27448 12.9448C3.21898 13.0787 3.19041 13.2222 3.19041 13.3672C3.19041 13.5121 3.21898 13.6557 3.27448 13.7896C3.32998 13.9235 3.41133 14.0452 3.51387 14.1476L4.39278 15.0266C4.54735 15.183 4.6521 15.3818 4.69382 15.5978C4.73553 15.8138 4.71233 16.0372 4.62715 16.24L4.62129 16.2541C4.53828 16.4575 4.39672 16.6316 4.21457 16.7544C4.03243 16.8772 3.81791 16.9431 3.59824 16.9437H2.35489C2.20972 16.9437 2.06598 16.9724 1.9319 17.028C1.79781 17.0836 1.67601 17.1651 1.57348 17.2679C1.47094 17.3707 1.38967 17.4926 1.33434 17.6268C1.279 17.761 1.25067 17.9048 1.25098 18.05V20.474C1.25098 20.7668 1.36728 21.0476 1.57431 21.2546C1.78133 21.4616 2.06211 21.5779 2.35489 21.5779H3.60117C3.82084 21.5786 4.03536 21.6445 4.2175 21.7673C4.39965 21.8901 4.54121 22.0642 4.62422 22.2676L4.63008 22.2816C4.71526 22.4844 4.73846 22.7079 4.69675 22.9239C4.65503 23.1399 4.55028 23.3386 4.39571 23.4951L3.5168 24.374C3.41426 24.4765 3.33291 24.5981 3.27741 24.7321C3.22191 24.866 3.19334 25.0095 3.19334 25.1545C3.19334 25.2994 3.22191 25.443 3.27741 25.5769C3.33291 25.7108 3.41426 25.8325 3.5168 25.935L5.23067 27.6488C5.33313 27.7514 5.4548 27.8327 5.58871 27.8882C5.72263 27.9437 5.86617 27.9723 6.01114 27.9723C6.1561 27.9723 6.29964 27.9437 6.43356 27.8882C6.56747 27.8327 6.68914 27.7514 6.7916 27.6488L7.67051 26.7699C7.827 26.6153 8.02577 26.5106 8.24174 26.4689C8.45771 26.4272 8.68119 26.4504 8.88399 26.5355L8.89805 26.5414C9.10143 26.6244 9.27556 26.766 9.39834 26.9481C9.52113 27.1303 9.58704 27.3448 9.5877 27.5644V28.8107C9.58785 29.1033 9.70415 29.3839 9.91103 29.5907C10.1179 29.7976 10.3984 29.9139 10.691 29.9141H13.115C13.4078 29.9141 13.6886 29.7978 13.8956 29.5907C14.1026 29.3837 14.2189 29.1029 14.2189 28.8102V27.5639C14.2196 27.3442 14.2855 27.1297 14.4083 26.9475C14.5311 26.7654 14.7052 26.6238 14.9086 26.5408L14.9227 26.535C15.1255 26.4498 15.3489 26.4266 15.5649 26.4683C15.7809 26.51 15.9796 26.6148 16.1361 26.7693L17.015 27.6482C17.1175 27.7508 17.2392 27.8321 17.3731 27.8876C17.507 27.9431 17.6505 27.9717 17.7955 27.9717C17.9405 27.9717 18.084 27.9431 18.2179 27.8876C18.3518 27.8321 18.4735 27.7508 18.576 27.6482L20.2939 25.9373C20.3965 25.8348 20.4778 25.7132 20.5333 25.5793C20.5888 25.4453 20.6174 25.3018 20.6174 25.1568C20.6174 25.0119 20.5888 24.8683 20.5333 24.7344C20.4778 24.6005 20.3965 24.4788 20.2939 24.3764L19.415 23.4975C19.2605 23.341 19.1557 23.1422 19.114 22.9262C19.0723 22.7103 19.0955 22.4868 19.1807 22.284L19.1865 22.2699C19.2695 22.0665 19.4111 21.8924 19.5932 21.7696C19.7754 21.6468 19.9899 21.5809 20.2096 21.5803H21.4559C21.7482 21.579 22.0282 21.4619 22.2342 21.2545C22.4403 21.0471 22.5557 20.7664 22.5551 20.474Z" stroke="white" stroke-width="1.5" stroke-linecap="round" stroke-linejoin="round"/>
<path d="M11.9033 23.6445C14.3239 23.6445 16.2861 21.6823 16.2861 19.2617C16.2861 16.8412 14.3239 14.8789 11.9033 14.8789C9.48276 14.8789 7.52051 16.8412 7.52051 19.2617C7.52051 21.6823 9.48276 23.6445 11.9033 23.6445Z" stroke="white" stroke-width="1.5" stroke-linecap="round" stroke-linejoin="round"/>
<path d="M12.8203 8.60996V8.58594C12.8203 8.35284 12.9129 8.12928 13.0777 7.96446C13.2426 7.79963 13.4661 7.70703 13.6992 7.70703H14.6895C14.8641 7.70685 15.0347 7.65465 15.1796 7.55707C15.3245 7.45949 15.4369 7.32097 15.5027 7.15918C15.5027 7.15566 15.5057 7.15156 15.5074 7.14805C15.5751 6.9867 15.5934 6.80886 15.5598 6.63713C15.5262 6.46539 15.4423 6.30753 15.3187 6.18359L14.6156 5.48398C14.4516 5.31926 14.3595 5.09625 14.3595 4.86377C14.3595 4.63129 14.4516 4.40828 14.6156 4.24355L15.9773 2.88184C16.142 2.71796 16.3649 2.62597 16.5973 2.62597C16.8296 2.62597 17.0525 2.71796 17.2172 2.88184L17.9174 3.58496C18.0416 3.70791 18.1995 3.79125 18.371 3.82442C18.5426 3.85759 18.7202 3.8391 18.8813 3.77129L18.8924 3.7666C19.0543 3.70091 19.1929 3.58845 19.2906 3.44359C19.3883 3.29873 19.4406 3.12804 19.4408 2.95332V1.96484C19.4408 1.73174 19.5334 1.50819 19.6982 1.34336C19.8631 1.17854 20.0866 1.08594 20.3197 1.08594H22.2457C22.4788 1.08594 22.7024 1.17854 22.8672 1.34336C23.032 1.50819 23.1246 1.73174 23.1246 1.96484V2.95508C23.1248 3.12973 23.177 3.30037 23.2746 3.44522C23.3722 3.59008 23.5107 3.70257 23.6725 3.76836L23.683 3.77305C23.8442 3.84083 24.0218 3.8593 24.1935 3.82614C24.3652 3.79297 24.5231 3.70965 24.6475 3.58672L25.3506 2.88359C25.5153 2.71972 25.7382 2.62772 25.9705 2.62772C26.2028 2.62772 26.4257 2.71972 26.5904 2.88359L27.9521 4.24531C28.1162 4.41004 28.2083 4.63305 28.2083 4.86553C28.2083 5.09801 28.1162 5.32102 27.9521 5.48574L27.2479 6.18359C27.1247 6.30781 27.0414 6.46583 27.0083 6.63757C26.9752 6.8093 26.9939 6.98699 27.0621 7.14805L27.0662 7.15918C27.132 7.32088 27.2444 7.45933 27.3891 7.5569C27.5338 7.65447 27.7044 7.70674 27.8789 7.70703H28.8691C29.1022 7.70703 29.3258 7.79963 29.4906 7.96446C29.6554 8.12928 29.748 8.35284 29.748 8.58594V10.5113C29.748 10.7444 29.6554 10.968 29.4906 11.1328C29.3258 11.2976 29.1022 11.3902 28.8691 11.3902H27.8789C27.7043 11.3906 27.5337 11.4429 27.389 11.5406C27.2442 11.6383 27.1319 11.7769 27.0662 11.9387L27.0621 11.9492C26.9935 12.1102 26.9746 12.288 27.0077 12.4598C27.0408 12.6316 27.1244 12.7897 27.2479 12.9137L27.948 13.6139C28.1119 13.7786 28.2039 14.0015 28.2039 14.2338C28.2039 14.4661 28.1119 14.689 27.948 14.8537L26.5863 16.2154C26.4216 16.3793 26.1987 16.4713 25.9664 16.4713C25.7341 16.4713 25.5112 16.3793 25.3465 16.2154L24.6434 15.5152C24.5194 15.3917 24.3614 15.308 24.1896 15.2748C24.0178 15.2416 23.8399 15.2604 23.6789 15.3289L23.6684 15.333C23.5074 15.3991 23.3697 15.5116 23.2727 15.656C23.1757 15.8005 23.1237 15.9705 23.1234 16.1445V17.1348C23.1227 17.3135 23.0676 17.4877 22.9653 17.6343C22.863 17.7809 22.7185 17.8928 22.551 17.9551" stroke="white" stroke-width="1.5" stroke-linecap="round" stroke-linejoin="round"/>
<path d="M21.2826 12.4016C22.8582 12.4016 24.1355 11.1243 24.1355 9.54864C24.1355 7.97301 22.8582 6.69571 21.2826 6.69571C19.707 6.69571 18.4297 7.97301 18.4297 9.54864C18.4297 11.1243 19.707 12.4016 21.2826 12.4016Z" stroke="white" stroke-width="1.5" stroke-linecap="round" stroke-linejoin="round"/>
</svg>
