<svg width="23" height="31" viewBox="0 0 23 31" fill="none" xmlns="http://www.w3.org/2000/svg">
<path d="M20.875 3.625H15.7959C15.542 2.64206 14.7037 1.89163 13.6754 1.76794C13.2371 0.995313 12.4093 0.5 11.5 0.5C10.5907 0.5 9.76288 0.995313 9.32469 1.76794C8.29638 1.89163 7.45806 2.64206 7.20413 3.625H2.125C1.09113 3.625 0.25 4.46613 0.25 5.5V28.625C0.25 29.6589 1.09113 30.5 2.125 30.5H20.875C21.9089 30.5 22.75 29.6589 22.75 28.625V5.5C22.75 4.46613 21.9089 3.625 20.875 3.625ZM9.625 3H9.73213C9.99706 3 10.2331 2.83306 10.3214 2.58331C10.4976 2.08487 10.9712 1.75 11.5 1.75C12.0288 1.75 12.5024 2.08487 12.6786 2.58331C12.7669 2.83306 13.003 3 13.2679 3H13.375C14.0642 3 14.625 3.56075 14.625 4.25C14.625 4.93925 14.0642 5.5 13.375 5.5H9.625C8.93575 5.5 8.375 4.93925 8.375 4.25C8.375 3.56075 8.93575 3 9.625 3ZM4.625 4.875H7.20413C7.48231 5.95206 8.46225 6.75 9.625 6.75H13.375C14.5378 6.75 15.5177 5.95206 15.7959 4.875H18.375V26.125H4.625V4.875ZM21.5 28.625C21.5 28.9696 21.2196 29.25 20.875 29.25H2.125C1.78038 29.25 1.5 28.9696 1.5 28.625V5.5C1.5 5.15538 1.78038 4.875 2.125 4.875H3.375V26.125C3.375 26.8143 3.93575 27.375 4.625 27.375H18.375C19.0643 27.375 19.625 26.8143 19.625 26.125V4.875H20.875C21.2196 4.875 21.5 5.15538 21.5 5.5V28.625Z" fill="white"/>
<path d="M9 10.5H14C14.3451 10.5 14.625 10.2201 14.625 9.875C14.625 9.52987 14.3451 9.25 14 9.25H9C8.65488 9.25 8.375 9.52987 8.375 9.875C8.375 10.2201 8.65488 10.5 9 10.5Z" fill="white"/>
<path d="M14 15.5H9C8.65488 15.5 8.375 15.7799 8.375 16.125C8.375 16.4701 8.65488 16.75 9 16.75H14C14.3451 16.75 14.625 16.4701 14.625 16.125C14.625 15.7799 14.3451 15.5 14 15.5Z" fill="white"/>
<path d="M12.625 19.25C12.2176 19.25 11.8244 19.3809 11.5 19.6119C11.1756 19.3809 10.7824 19.25 10.375 19.25C9.30663 19.25 8.4375 20.1191 8.4375 21.1875C8.4375 21.731 8.677 22.2423 9.09456 22.5903L10.7683 23.9851C10.9733 24.1559 11.2331 24.25 11.5 24.25C11.7669 24.25 12.0267 24.1559 12.2316 23.9851L13.9054 22.5902C14.323 22.2423 14.5625 21.731 14.5625 21.1875C14.5625 20.1191 13.6934 19.25 12.625 19.25ZM13.1053 21.6299L11.5 22.9676L9.89469 21.6299C9.76306 21.5202 9.6875 21.3589 9.6875 21.1875C9.6875 20.8084 9.99594 20.5 10.375 20.5C10.6183 20.5 10.8388 20.6248 10.9647 20.8338C11.0778 21.0216 11.2809 21.1363 11.5 21.1363C11.7191 21.1363 11.9222 21.0216 12.0353 20.8338C12.1613 20.6248 12.3817 20.5 12.625 20.5C13.0041 20.5 13.3125 20.8084 13.3125 21.1875C13.3125 21.3589 13.2369 21.5202 13.1053 21.6299Z" fill="white"/>
<path d="M15.875 11.5H7.125C6.77987 11.5 6.5 11.7799 6.5 12.125C6.5 12.4701 6.77987 12.75 7.125 12.75H15.875C16.2201 12.75 16.5 12.4701 16.5 12.125C16.5 11.7799 16.2201 11.5 15.875 11.5Z" fill="white"/>
</svg>
