<svg width="29" height="29" viewBox="0 0 29 29" fill="none" xmlns="http://www.w3.org/2000/svg">
<g clip-path="url(#clip0_2474_2329)">
<path d="M6.77546 16.9138C8.37291 16.9138 9.67201 15.6147 9.67201 14.0172C9.67201 12.4198 8.37291 11.1207 6.77546 11.1207C5.17801 11.1207 3.87891 12.4198 3.87891 14.0172C3.87891 15.6147 5.17801 16.9138 6.77546 16.9138ZM6.77546 12.0862C7.84042 12.0862 8.70649 12.9523 8.70649 14.0172C8.70649 15.0822 7.84042 15.9483 6.77546 15.9483C5.71049 15.9483 4.84442 15.0822 4.84442 14.0172C4.84442 12.9523 5.71049 12.0862 6.77546 12.0862Z" fill="white"/>
<path d="M14.5001 16.9138C16.0975 16.9138 17.3966 15.6147 17.3966 14.0172C17.3966 12.4198 16.0975 11.1207 14.5001 11.1207C12.9026 11.1207 11.6035 12.4198 11.6035 14.0172C11.6035 15.6147 12.9026 16.9138 14.5001 16.9138ZM14.5001 12.0862C15.565 12.0862 16.4311 12.9523 16.4311 14.0172C16.4311 15.0822 15.565 15.9483 14.5001 15.9483C13.4351 15.9483 12.569 15.0822 12.569 14.0172C12.569 12.9523 13.4351 12.0862 14.5001 12.0862Z" fill="white"/>
<path d="M22.2237 16.9138C23.8211 16.9138 25.1203 15.6147 25.1203 14.0172C25.1203 12.4198 23.8211 11.1207 22.2237 11.1207C20.6263 11.1207 19.3271 12.4198 19.3271 14.0172C19.3271 15.6147 20.6263 16.9138 22.2237 16.9138ZM22.2237 12.0862C23.2887 12.0862 24.1547 12.9523 24.1547 14.0172C24.1547 15.0822 23.2887 15.9483 22.2237 15.9483C21.1587 15.9483 20.2927 15.0822 20.2927 14.0172C20.2927 12.9523 21.1587 12.0862 22.2237 12.0862Z" fill="white"/>
<path d="M6.77546 24.6379C8.37291 24.6379 9.67201 23.3388 9.67201 21.7414C9.67201 20.1439 8.37291 18.8448 6.77546 18.8448C5.17801 18.8448 3.87891 20.1439 3.87891 21.7414C3.87891 23.3388 5.17801 24.6379 6.77546 24.6379ZM6.77546 19.8103C7.84042 19.8103 8.70649 20.6764 8.70649 21.7414C8.70649 22.8063 7.84042 23.6724 6.77546 23.6724C5.71049 23.6724 4.84442 22.8063 4.84442 21.7414C4.84442 20.6764 5.71049 19.8103 6.77546 19.8103Z" fill="white"/>
<path d="M14.5001 24.6379C16.0975 24.6379 17.3966 23.3388 17.3966 21.7414C17.3966 20.1439 16.0975 18.8448 14.5001 18.8448C12.9026 18.8448 11.6035 20.1439 11.6035 21.7414C11.6035 23.3388 12.9026 24.6379 14.5001 24.6379ZM14.5001 19.8103C15.565 19.8103 16.4311 20.6764 16.4311 21.7414C16.4311 22.8063 15.565 23.6724 14.5001 23.6724C13.4351 23.6724 12.569 22.8063 12.569 21.7414C12.569 20.6764 13.4351 19.8103 14.5001 19.8103Z" fill="white"/>
<path d="M22.2237 24.6379C23.8211 24.6379 25.1203 23.3388 25.1203 21.7414C25.1203 20.1439 23.8211 18.8448 22.2237 18.8448C20.6263 18.8448 19.3271 20.1439 19.3271 21.7414C19.3271 23.3388 20.6263 24.6379 22.2237 24.6379Z" fill="white"/>
<path d="M13.0521 0.5C12.7851 0.5 12.5693 0.715793 12.5693 0.982759C12.5693 1.24972 12.7851 1.46552 13.0521 1.46552C13.6806 1.46552 14.2117 1.87007 14.4115 2.43103H15.4171C15.1926 1.33083 14.2175 0.5 13.0521 0.5Z" fill="white"/>
<path d="M15.9486 0.5C15.6816 0.5 15.4658 0.715793 15.4658 0.982759C15.4658 1.24972 15.6816 1.46552 15.9486 1.46552C16.5771 1.46552 17.1082 1.87007 17.308 2.43103H18.3136C18.0891 1.33083 17.114 0.5 15.9486 0.5Z" fill="white"/>
<path d="M18.8451 0.5C18.5781 0.5 18.3623 0.715793 18.3623 0.982759C18.3623 1.24972 18.5781 1.46552 18.8451 1.46552C19.4736 1.46552 20.0047 1.87007 20.2045 2.43103H21.2101C20.9856 1.33083 20.0104 0.5 18.8451 0.5Z" fill="white"/>
<path d="M21.2099 2.43103C21.2417 2.58697 21.2586 2.74869 21.2586 2.91379C21.2586 4.24476 20.1758 5.32759 18.8448 5.32759C18.5779 5.32759 18.3621 5.11179 18.3621 4.84483C18.3621 4.57786 18.5779 4.36207 18.8448 4.36207C19.6433 4.36207 20.2931 3.71228 20.2931 2.91379C20.2931 2.74338 20.2583 2.58262 20.2043 2.43103H18.3133C18.3452 2.58697 18.3621 2.74869 18.3621 2.91379C18.3621 4.24476 17.2792 5.32759 15.9483 5.32759C15.6813 5.32759 15.4655 5.11179 15.4655 4.84483C15.4655 4.57786 15.6813 4.36207 15.9483 4.36207C16.7468 4.36207 17.3965 3.71228 17.3965 2.91379C17.3965 2.74338 17.3618 2.58262 17.3077 2.43103H15.4168C15.4486 2.58697 15.4655 2.74869 15.4655 2.91379C15.4655 4.24476 14.3827 5.32759 13.0517 5.32759C12.7848 5.32759 12.569 5.11179 12.569 4.84483C12.569 4.57786 12.7848 4.36207 13.0517 4.36207C13.8502 4.36207 14.5 3.71228 14.5 2.91379C14.5 2.74338 14.4652 2.58262 14.4112 2.43103H12.5202C12.5521 2.58697 12.569 2.74869 12.569 2.91379C12.569 4.24476 11.4861 5.32759 10.1552 5.32759C9.88821 5.32759 9.67241 5.11179 9.67241 4.84483C9.67241 4.57786 9.88821 4.36207 10.1552 4.36207C10.9537 4.36207 11.6034 3.71228 11.6034 2.91379C11.6034 2.74338 11.5687 2.58262 11.5146 2.43103H9.18965H8.79572C8.99559 1.87007 9.52662 1.46552 10.1552 1.46552C10.7837 1.46552 11.3148 1.87007 11.5146 2.43103H12.5202C12.2957 1.33083 11.3205 0.5 10.1552 0.5C8.98979 0.5 8.01462 1.33083 7.79014 2.43103H7.25862H0.5V7.74138V28.5H28.5V7.74138V2.43103H21.2099ZM27.5345 27.5345H1.46552V8.7069H27.5345V27.5345Z" fill="white"/>
</g>
<defs>
<clipPath id="clip0_2474_2329">
<rect width="28" height="28" fill="white" transform="translate(0.5 0.5)"/>
</clipPath>
</defs>
</svg>
