<svg width="16" height="16" viewBox="0 0 16 16" fill="none" xmlns="http://www.w3.org/2000/svg">
<path fill-rule="evenodd" clip-rule="evenodd" d="M0 2.90909C0 2.13755 0.306493 1.39761 0.852053 0.852053C1.39761 0.306493 2.13755 0 2.90909 0H13.0909C13.8624 0 14.6024 0.306493 15.1479 0.852053C15.6935 1.39761 16 2.13755 16 2.90909V13.0909C16 13.8624 15.6935 14.6024 15.1479 15.1479C14.6024 15.6935 13.8624 16 13.0909 16H2.90909C2.13755 16 1.39761 15.6935 0.852053 15.1479C0.306493 14.6024 0 13.8624 0 13.0909V2.90909ZM2.90909 1.45455H13.0909C13.4767 1.45455 13.8466 1.60779 14.1194 1.88057C14.3922 2.15335 14.5455 2.52332 14.5455 2.90909V13.0909C14.5455 13.4767 14.3922 13.8466 14.1194 14.1194C13.8466 14.3922 13.4767 14.5455 13.0909 14.5455H2.90909C2.52332 14.5455 2.15335 14.3922 1.88057 14.1194C1.60779 13.8466 1.45455 13.4767 1.45455 13.0909V2.90909C1.45455 2.52332 1.60779 2.15335 1.88057 1.88057C2.15335 1.60779 2.52332 1.45455 2.90909 1.45455Z" fill="#E5EA17"/>
</svg>
