<svg width="32" height="32" viewBox="0 0 32 32" fill="none" xmlns="http://www.w3.org/2000/svg">
<path d="M25.3333 21.9996V15.0663C24.6667 15.1996 24 15.333 23.3333 15.333H22.6667V23.333H9.33333V13.9996C9.33333 10.2663 12.2667 7.33297 16 7.33297C16.1333 5.59963 16.9333 4.13297 18 2.93297C17.6 2.39963 16.8 1.99963 16 1.99963C14.5333 1.99963 13.3333 3.19963 13.3333 4.6663V5.0663C9.33333 6.2663 6.66667 9.8663 6.66667 13.9996V21.9996L4 24.6663V25.9996H28V24.6663L25.3333 21.9996ZM13.3333 27.333C13.3333 28.7996 14.5333 29.9996 16 29.9996C17.4667 29.9996 18.6667 28.7996 18.6667 27.333H13.3333ZM28 7.99963C28 10.533 25.8667 12.6663 23.3333 12.6663C20.8 12.6663 18.6667 10.533 18.6667 7.99963C18.6667 5.4663 20.8 3.33297 23.3333 3.33297C25.8667 3.33297 28 5.4663 28 7.99963Z" fill="white"/>
</svg>
