<svg width="15" height="19" viewBox="0 0 15 19" fill="none" xmlns="http://www.w3.org/2000/svg">
<path d="M13.4062 0.5C13.8738 0.5 14.25 0.876172 14.25 1.34375C14.25 1.81133 13.8738 2.1875 13.4062 2.1875H13.125V2.85547C13.125 4.27227 12.5625 5.63281 11.5605 6.63477L8.6918 9.5L11.5605 12.3652C12.5625 13.3672 13.125 14.7277 13.125 16.1445V16.8125H13.4062C13.8738 16.8125 14.25 17.1887 14.25 17.6562C14.25 18.1238 13.8738 18.5 13.4062 18.5H1.59375C1.12617 18.5 0.75 18.1238 0.75 17.6562C0.75 17.1887 1.12617 16.8125 1.59375 16.8125H1.875V16.1445C1.875 14.7277 2.4375 13.3672 3.43945 12.3652L6.3082 9.5L3.44297 6.63477C2.4375 5.63281 1.875 4.27227 1.875 2.85547V2.1875H1.59375C1.12617 2.1875 0.75 1.81133 0.75 1.34375C0.75 0.876172 1.12617 0.5 1.59375 0.5H13.4062ZM7.5 10.6918L4.63477 13.557C3.94922 14.2461 3.5625 15.1742 3.5625 16.1445V16.8125H11.4375V16.1445C11.4375 15.1742 11.0508 14.2461 10.3652 13.5605L7.5 10.6918ZM7.5 8.30469L10.3652 5.43945C11.0508 4.75391 11.4375 3.82578 11.4375 2.85547V2.1875H3.5625V2.85547C3.5625 3.82578 3.94922 4.75391 4.63477 5.43945L7.5 8.3082V8.30469Z" fill="white"/>
</svg>
