<svg width="29" height="31" viewBox="0 0 29 31" fill="none" xmlns="http://www.w3.org/2000/svg">
<path d="M20.6586 9.82757V13.0896H19.4448V10.431C19.4448 9.89327 19.0205 9.46895 18.4828 9.46895C17.945 9.46895 17.5207 9.89328 17.5207 10.431V13.0896H11.3586V10.431C11.3586 9.89327 10.9343 9.46895 10.3966 9.46895C9.8588 9.46895 9.43448 9.89328 9.43448 10.431V13.0896H8.22069V9.82757C8.22069 8.24975 9.4768 6.92757 11 6.92757H17.8793C19.3905 6.92757 20.6586 8.26189 20.6586 9.82757ZM3.87586 17.5517V16.9517H3.27586H1.1V14.8931H27.9V16.9517H25.6034H25.0034V17.5517V30.1069H3.87586V17.5517ZM11.9617 20.6136V21.0322H11.9329H11.3814H10.7814V21.6322V22.6002C10.7814 24.2106 11.87 25.5572 13.3436 25.9799V26.4103L12.859 26.8193H12.6716H12.0716V27.4193V27.8779V28.4779H12.6716H16.3284H16.9284V27.8779V27.4193V26.8193H16.3284H16.1501L15.6383 26.3857V25.9915C17.1215 25.5758 18.2186 24.2281 18.2186 22.6086V21.6322V21.0322H17.6186H17.0671H17.0383V20.6136V20.5652V19.9246H17.0517L17.0383 19.5495V19.2846H17.0287C16.9742 18.0345 15.9483 17.0193 14.6738 17.0193H14.3178C13.0461 17.0193 12.0174 18.0317 11.9712 19.2846H11.9617V19.6308L11.9538 19.9246H11.9617V20.5736V20.6136ZM12.3084 3.0243C12.3084 1.85067 13.266 0.893091 14.4397 0.893091C15.6129 0.893091 16.5697 1.85032 16.5697 3.0243C16.5697 4.19517 15.6028 5.1543 14.4397 5.1543C13.2555 5.1543 12.3084 4.19828 12.3084 3.0243Z" stroke="white" stroke-width="1.2"/>
</svg>
