<svg width="21" height="21" viewBox="0 0 21 21" fill="none" xmlns="http://www.w3.org/2000/svg">
<g clip-path="url(#clip0_2474_2286)">
<path d="M6.45117 13.5139L7.30279 19.9706C7.34377 20.2815 7.61413 20.5104 7.92757 20.4996L10.2122 20.4211C10.6332 20.4067 10.9128 19.9795 10.7575 19.5879L8.26238 13.293L6.45117 13.5139Z" fill="white"/>
<path d="M6.56843 14.3241L6.62073 14.7753C6.62073 14.7753 8.77865 14.5726 8.73942 14.5072C8.7002 14.4418 8.32094 13.389 8.32094 13.389L6.39844 13.8729L6.56843 14.3241Z" fill="white"/>
<path d="M6.54233 6.39436L4.81895 7.24222C2.96763 8.15297 2.20521 10.3921 3.11596 12.2434C4.02671 14.0947 6.26582 14.8571 8.11713 13.9464L9.84051 13.0985C9.84051 13.0985 6.49753 6.37909 6.54233 6.39436Z" fill="white"/>
<path d="M2.78358 10.0239L2.70781 10.0612C1.80833 10.5037 1.43692 11.5897 1.87829 12.4868L2.11991 12.9779C2.56128 13.8751 3.64822 14.2436 4.54775 13.8011L2.78358 10.0239Z" fill="white"/>
<path d="M15.7876 14.2669C14.743 14.2669 11.8907 14.0055 9.58044 13.2376C9.49032 13.2076 6.13992 6.68613 6.17012 6.59274C7.13137 3.62371 9.4163 0.749521 9.51364 0.632225C9.59288 0.536739 9.71525 0.488045 9.8382 0.502488C9.9614 0.517076 10.0688 0.593045 10.1236 0.704388L16.5336 13.7339C16.5884 13.8452 16.583 13.9767 16.5194 14.0832C16.4558 14.1896 16.3425 14.2566 16.2185 14.2611C16.212 14.2614 16.0571 14.2669 15.7876 14.2669Z" fill="white"/>
<path d="M15.4093 6.60396C15.2742 6.60396 15.1443 6.52887 15.0806 6.39948C14.9914 6.21817 15.0661 5.9988 15.2475 5.90961L17.7232 4.69166C17.9045 4.60242 18.1238 4.67712 18.213 4.85848C18.3023 5.03979 18.2276 5.25916 18.0462 5.34835L15.5705 6.5663C15.5186 6.59186 15.4635 6.60396 15.4093 6.60396Z" fill="white"/>
<path d="M14.3959 4.48044C14.3283 4.48044 14.26 4.46176 14.1988 4.42253C14.0286 4.31348 13.9791 4.08708 14.0882 3.91695L15.4557 1.76581C15.5648 1.59567 15.7911 1.54615 15.9613 1.6552C16.1314 1.76425 16.1809 1.99064 16.0719 2.16078L14.7044 4.31192C14.6345 4.42092 14.5165 4.48044 14.3959 4.48044Z" fill="white"/>
<path d="M18.9419 9.05191C18.9308 9.05191 18.9196 9.05142 18.9083 9.0504L16.4042 8.79673C16.2029 8.77843 16.0545 8.60044 16.0728 8.39917C16.0911 8.19785 16.2691 8.04923 16.4704 8.06782L18.9745 8.32149C19.1758 8.33979 19.3242 8.51778 19.3059 8.71905C19.2886 8.90909 19.129 9.05191 18.9419 9.05191Z" fill="white"/>
</g>
<defs>
<clipPath id="clip0_2474_2286">
<rect width="20" height="20" fill="white" transform="translate(0.5 0.5)"/>
</clipPath>
</defs>
</svg>
