<svg width="90" height="28" viewBox="0 0 90 28" fill="none" xmlns="http://www.w3.org/2000/svg">
<path d="M32.7241 4.59009L32.6978 6.14074H32.7136V13.7679C32.7136 14.8875 32.9081 15.7022 33.2944 16.2121C33.7333 16.7719 34.5008 17.0794 35.5941 17.1294C36.2906 17.1635 36.9897 16.9349 37.6862 16.446C38.3065 16.015 38.819 15.4683 39.2237 14.806C39.6626 14.0832 39.8834 13.3762 39.8834 12.6877V7.82018L42.5563 8.75057V21.9732C42.5563 23.5843 41.8151 24.8958 40.3355 25.9129C38.9661 26.8512 37.3603 27.3216 35.5179 27.3216C32.4008 27.3216 30.1852 26.4727 28.8685 24.7775C28.335 24.0889 28.0669 23.5002 28.0669 23.0087C28.0748 21.9311 28.6793 21.0296 29.8751 20.2964C30.9343 19.6498 32.0329 19.3292 33.1683 19.3292L34.8083 21.5237C33.3286 21.6262 32.0013 21.9416 30.8318 22.4673C30.0643 22.8116 29.6833 23.2558 29.6833 23.7972C29.7779 24.5804 30.3666 25.2742 31.4521 25.8761C32.0986 26.2388 32.9317 26.4175 33.9567 26.4175C36.3064 26.4175 38.0804 25.6553 39.2763 24.1309C39.844 23.4082 40.1278 22.5645 40.1278 21.6V16.3435C39.568 17.2555 38.0752 17.7128 35.6467 17.7128C33.6072 17.7128 32.0618 17.0137 31.0105 15.6181C30.4927 14.9374 30.2352 14.1621 30.2352 13.2921V6.14337H28.4007V4.59272H32.7241V4.59009Z" fill="white"/>
<path d="M57.1949 6.14128H54.288V9.69727C54.288 9.77612 54.6323 10.1572 55.3209 10.8484C55.8466 11.4871 56.1094 12.3991 56.1094 13.5897C56.1094 15.5635 55.2342 17.0248 53.4891 17.9709C52.6638 18.4177 51.7623 18.6438 50.7899 18.6438C49.3785 18.6438 47.9225 18.0209 46.4244 16.7725C44.858 15.4636 44.0747 14.0444 44.0747 12.5121C44.0747 11.8077 44.3297 11.0745 44.8369 10.3175C45.2942 9.63683 45.8435 9.07439 46.4901 8.62496C47.2654 8.09143 48.1984 7.82335 49.2918 7.82335C49.8936 7.82335 50.7846 7.98367 51.9647 8.30168C52.0172 8.30168 52.0409 8.26752 52.0409 8.19656V6.14391H43.1812V4.59326H57.1922V6.14391L57.1949 6.14128ZM54.2118 11.8656C54.2118 10.6487 53.6783 9.83394 52.6112 9.42131C52.2144 9.26625 51.8753 9.1874 51.5915 9.1874C50.5244 9.1874 49.3759 9.66574 48.1432 10.6224C46.7056 11.742 45.9855 13.1718 45.9855 14.9038C45.9855 15.7133 46.4507 16.3782 47.3811 16.896C47.8016 17.1299 48.23 17.2455 48.6584 17.2455C49.7254 17.2455 50.8976 16.7278 52.1697 15.6923C53.5311 14.5884 54.2092 13.3137 54.2092 11.8629L54.2118 11.8656Z" fill="white"/>
<path d="M62.27 23.5871C62.27 24.4387 61.705 25.172 60.5774 25.7817C60.0518 26.0656 59.4841 26.2075 58.8717 26.2075C58.1647 26.2075 57.4498 25.9657 56.7271 25.4847C56.0043 25.0011 55.505 24.4387 55.229 23.7922L57.2317 22.2415C57.3947 24.4282 58.007 25.5215 59.0662 25.5215C59.6786 25.5215 59.9835 25.1588 59.9835 24.4361V9.84153H62.27V23.5845V23.5871ZM64.0388 6.14098H56.2645V4.59033H64.0388V6.14098Z" fill="white"/>
<path d="M76.0509 6.14158H67.4513V8.22051C67.4855 8.22051 67.5196 8.23891 67.5538 8.27308C67.588 8.30724 67.6195 8.32564 67.6432 8.32564C67.5748 8.32564 67.5354 8.32038 67.5275 8.3125C67.5275 8.27045 68.1688 8.13115 69.4514 7.89986C69.9245 7.81313 70.3949 7.77108 70.8601 7.77108C72.7971 7.77108 74.0403 8.3125 74.5922 9.39796C74.9628 10.1207 75.1468 11.5794 75.1468 13.7766V18.7492C74.9654 18.6808 74.2821 18.3996 73.0941 17.9108C73.0941 17.6348 73.0389 17.4587 72.9259 17.3825C72.4686 17.6506 72.0954 17.853 71.8037 17.9896C70.8733 18.4285 69.7931 18.6493 68.5631 18.6493C66.8679 18.6493 65.559 18.1158 64.6365 17.0487C64.1897 16.531 63.9637 15.9554 63.9637 15.3193C63.9637 14.6045 64.3158 13.8949 65.0228 13.1879C66.3921 11.8186 68.0926 11.1352 70.1242 11.1352C71.3542 11.1352 72.3451 11.4191 73.0941 11.9868V10.7988C72.7157 10.3152 72.3477 9.99456 71.9903 9.82898C71.6328 9.66603 71.144 9.59244 70.5237 9.61084C69.1386 9.63712 67.8666 9.88943 66.7154 10.373C66.1977 10.5885 65.6957 10.783 65.2042 10.9539V9.99456C65.3172 9.89995 65.4802 9.75802 65.6957 9.56616C65.7298 9.52411 65.7509 9.49783 65.7614 9.48732V6.14684H63.1147V4.59619H76.0535V6.14684L76.0509 6.14158ZM73.0941 14.3285C73.0941 13.95 72.6421 13.611 71.738 13.3088C70.9889 13.0591 70.3634 12.9355 69.8667 12.9355C68.0506 12.9355 66.5945 13.59 65.5012 14.8988C65.0623 15.4245 64.8415 15.8555 64.8415 16.1893C65.0228 16.8174 65.7325 17.1328 66.973 17.1328C68.5736 17.1328 70.0375 16.7333 71.3647 15.9317C72.5185 15.2352 73.0941 14.7017 73.0941 14.3311V14.3285Z" fill="white"/>
<path d="M89.7382 6.14098H75.856V4.59033H89.7382V6.14098ZM86.9628 11.8232C86.9628 9.75743 85.9851 8.72453 84.0324 8.72453C82.5868 8.72453 81.3752 9.48146 80.4028 10.9979C79.5407 12.341 79.1123 13.7707 79.1123 15.2846V19.043L76.994 17.9312V8.21991H79.2148V9.75743L80.3634 8.89274C81.3779 8.1253 82.4502 7.7442 83.5777 7.7442C85.1099 7.7442 86.3794 8.33818 87.386 9.52614C88.3321 10.6458 88.8052 11.9835 88.8052 13.5421C88.8052 15.4975 87.98 17.374 86.3268 19.1717L83.8352 17.6106C84.6106 16.8458 85.2676 16.1388 85.8117 15.4922C86.5791 14.5802 86.9602 13.3581 86.9602 11.8258L86.9628 11.8232Z" fill="white"/>
<path d="M35.7442 6.16257C34.2198 6.16257 29.037 6.20725 28.5245 6.20725H26.9686V18.9436C26.9239 18.9673 26.8792 18.9936 26.8372 19.0172C26.5113 18.715 26.1696 18.4285 25.8647 18.1079C24.8397 17.0355 24.3281 15.7652 24.3298 14.2969C24.3298 11.8027 24.3298 9.30593 24.3298 6.81175C24.3298 6.61463 24.3298 6.42014 24.3298 6.19411H22.519V18.9515C22.4743 18.9752 22.4296 18.9988 22.385 19.0198C22.0722 18.7281 21.7647 18.4338 21.4493 18.1499C20.3192 17.1328 19.6358 15.9764 19.8671 14.3469C20.0117 13.3245 19.8934 12.2679 19.8934 11.1509C19.3677 11.1509 18.892 11.1851 18.4268 11.1378C18.1588 11.1089 17.8355 11.0143 17.6568 10.8329C16.892 10.055 16.1692 9.23497 15.4307 8.43073C15.4675 8.36503 15.5016 8.30194 15.5384 8.23624C15.9852 8.23624 16.432 8.23624 16.8788 8.23624C17.21 8.23624 17.5385 8.23624 17.8697 8.23624C18.5766 8.23098 19.3257 8.09695 19.8487 8.82497V6.15994C18.8027 6.3886 18.0904 5.14019 17.6436 4.59878C17.6778 4.54884 17.712 4.50153 17.7461 4.4516C18.6923 4.4516 19.6385 4.46473 20.582 4.44108C20.8054 4.43582 21.0235 4.3123 21.218 4.25186C21.5728 4.31756 21.9303 4.4332 22.2903 4.44108C23.3337 4.46736 24.3798 4.44897 25.4652 4.44897C25.5125 4.30179 25.5598 4.15986 25.6045 4.02319C25.6623 4.02845 25.7149 4.01794 25.7307 4.03634C26.0697 4.40692 26.4902 4.46737 26.9712 4.45686C28.0856 4.42795 33.7731 4.44897 35.0162 4.44897L35.7416 6.16257H35.7442Z" fill="white"/>
<path d="M12.2526 3.44647C10.3708 3.47801 8.77542 4.08775 7.67945 5.82238C7.5349 5.71725 7.37195 5.63315 7.25631 5.507C6.60188 4.78949 5.95796 4.0641 5.31142 3.34134C5.09591 3.10217 5.10642 2.87351 5.26937 2.59492C6.25758 0.876059 9.81094 -0.359207 11.6691 1.33074C12.7309 2.29793 13.6666 3.42018 14.5707 4.54243C15.1778 5.29936 15.141 6.22713 14.7862 7.11022C14.618 7.53073 14.3683 7.92234 14.0897 8.44798C14.1791 8.51106 14.3551 8.58728 14.4708 8.71606C15.4853 9.86985 16.618 10.9474 17.4696 12.2142C19.4171 15.1053 18.5656 19.1238 15.6141 20.9662C12.8124 22.714 9.70056 23.2791 6.78848 21.5444C3.16942 19.3893 0.620037 16.2407 0.0497123 11.8699C-0.178943 10.1274 0.375613 8.61093 1.82902 7.50182C2.18646 7.22848 2.48082 7.17592 2.81461 7.55964C3.52948 8.38753 4.2759 9.18914 5.05648 10.0512C3.58205 10.866 2.85403 12.0539 2.68582 13.5599C2.49659 15.2603 3.01961 16.8268 3.78705 18.3091C3.91846 18.5614 4.29693 18.7112 4.58866 18.8505C7.42189 20.1909 11.5981 19.5601 13.8532 17.3813C15.664 15.6335 16.2212 13.4837 15.6298 11.0315C15.53 10.6163 15.3092 10.3508 14.9071 10.2141C14.5601 10.0985 14.2185 9.96184 13.8716 9.85145C13.225 9.64645 12.6153 9.62017 12.1343 10.222C11.882 10.5348 11.6297 10.5059 11.3669 10.2063C10.7124 9.46511 10.0475 8.73183 9.3878 7.99593C9.15651 7.73836 9.20382 7.56227 9.46665 7.32047C10.192 6.6529 10.9332 5.98271 11.5613 5.22841C11.9503 4.76058 12.1474 4.1298 12.4313 3.57262C12.3735 3.53057 12.313 3.48589 12.2552 3.44384L12.2526 3.44647Z" fill="white"/>
<path d="M61.0683 8.91795C61.7316 8.91795 62.2694 8.3802 62.2694 7.71685C62.2694 7.0535 61.7316 6.51575 61.0683 6.51575C60.4049 6.51575 59.8672 7.0535 59.8672 7.71685C59.8672 8.3802 60.4049 8.91795 61.0683 8.91795Z" fill="white"/>
<path d="M32.9853 4.06274L32.9591 5.6134H32.9748V13.2405C32.9748 14.3601 33.1693 15.1749 33.5557 15.6848C33.9946 16.2446 34.762 16.5521 35.8554 16.602C36.5518 16.6362 37.251 16.4075 37.9474 15.9187C38.5677 15.4876 39.0802 14.941 39.4849 14.2787C39.9239 13.5559 40.1446 12.8489 40.1446 12.1603V7.29284L42.8175 8.22323V21.4458C42.8175 23.0569 42.0764 24.3684 40.5967 25.3855C39.2274 26.3238 37.6215 26.7943 35.7791 26.7943C32.6621 26.7943 30.4465 25.9454 29.1297 24.2501C28.5962 23.5616 28.3281 22.9728 28.3281 22.4814C28.336 21.4038 28.9405 20.5023 30.1363 19.769C31.1955 19.1225 32.2941 18.8018 33.4295 18.8018L35.0695 20.9964C33.5898 21.0989 32.2626 21.4143 31.093 21.9399C30.3256 22.2842 29.9445 22.7284 29.9445 23.2698C30.0391 24.053 30.6278 24.7469 31.7133 25.3487C32.3598 25.7114 33.193 25.8902 34.218 25.8902C36.5676 25.8902 38.3417 25.128 39.5375 23.6036C40.1052 22.8808 40.3891 22.0372 40.3891 21.0726V15.8162C39.8292 16.7282 38.3364 17.1855 35.9079 17.1855C33.8684 17.1855 32.323 16.4864 31.2717 15.0908C30.754 14.4101 30.4964 13.6347 30.4964 12.7648V5.61603H28.6619V4.06537H32.9853V4.06274Z" fill="white"/>
<path d="M57.4566 5.61394H54.5497V9.16993C54.5497 9.24877 54.8941 9.62987 55.5826 10.3211C56.1083 10.9598 56.3711 11.8718 56.3711 13.0623C56.3711 15.0361 55.4959 16.4974 53.7508 17.4436C52.9255 17.8904 52.024 18.1164 51.0516 18.1164C49.6402 18.1164 48.1842 17.4935 46.6861 16.2451C45.1197 14.9363 44.3365 13.517 44.3365 11.9848C44.3365 11.2804 44.5914 10.5471 45.0987 9.79019C45.556 9.10948 46.1053 8.54704 46.7518 8.09761C47.5271 7.56409 48.4602 7.29601 49.5535 7.29601C50.1554 7.29601 51.0463 7.45632 52.2264 7.77434C52.279 7.77434 52.3026 7.74017 52.3026 7.66921V5.61657H43.4429V4.06592H57.4539V5.61657L57.4566 5.61394ZM54.4735 11.3382C54.4735 10.1213 53.94 9.3066 52.8729 8.89397C52.4761 8.7389 52.137 8.66006 51.8532 8.66006C50.7861 8.66006 49.6376 9.13839 48.405 10.0951C46.9673 11.2147 46.2472 12.6444 46.2472 14.3764C46.2472 15.1859 46.7124 15.8509 47.6428 16.3686C48.0633 16.6026 48.4917 16.7182 48.9201 16.7182C49.9872 16.7182 51.1593 16.2004 52.4314 15.1649C53.7928 14.0611 54.4709 12.7864 54.4709 11.3356L54.4735 11.3382Z" fill="white"/>
<path d="M62.5322 23.0598C62.5322 23.9114 61.9672 24.6446 60.8397 25.2544C60.314 25.5382 59.7463 25.6801 59.1339 25.6801C58.4269 25.6801 57.7121 25.4384 56.9893 24.9574C56.2665 24.4738 55.7672 23.9114 55.4912 23.2648L57.4939 21.7142C57.6569 23.9008 58.2692 24.9942 59.3284 24.9942C59.9408 24.9942 60.2457 24.6315 60.2457 23.9087V9.31419H62.5322V23.0572V23.0598ZM64.301 5.61364H56.5267V4.06299H64.301V5.61364Z" fill="white"/>
<path d="M76.3126 5.61424H67.713V7.69317C67.7472 7.69317 67.7814 7.71157 67.8155 7.74573C67.8497 7.7799 67.8812 7.7983 67.9049 7.7983C67.8366 7.7983 67.7971 7.79304 67.7893 7.78515C67.7893 7.7431 68.4305 7.60381 69.7131 7.37252C70.1862 7.28579 70.6567 7.24374 71.1218 7.24374C73.0588 7.24374 74.302 7.78516 74.8539 8.87061C75.2245 9.59338 75.4085 11.052 75.4085 13.2492V18.2218C75.2271 18.1535 74.5438 17.8723 73.3558 17.3834C73.3558 17.1075 73.3006 16.9314 73.1876 16.8552C72.7303 17.1232 72.3571 17.3256 72.0654 17.4623C71.135 17.9012 70.0548 18.122 68.8248 18.122C67.1296 18.122 65.8207 17.5884 64.8982 16.5214C64.4514 16.0036 64.2254 15.428 64.2254 14.792C64.2254 14.0771 64.5776 13.3675 65.2846 12.6605C66.6539 11.2912 68.3543 10.6079 70.3859 10.6079C71.6159 10.6079 72.6068 10.8917 73.3558 11.4594V10.2715C72.9774 9.78786 72.6094 9.46722 72.252 9.30164C71.8945 9.13869 71.4057 9.0651 70.7854 9.0835C69.4004 9.10978 68.1283 9.36209 66.9771 9.84568C66.4594 10.0612 65.9574 10.2557 65.4659 10.4265V9.46722C65.5789 9.3726 65.7419 9.23068 65.9574 9.03882C65.9916 8.99676 66.0126 8.97048 66.0231 8.95997V5.6195H63.3765V4.06885H76.3152V5.6195L76.3126 5.61424ZM73.3558 13.8012C73.3558 13.4227 72.9038 13.0837 71.9997 12.7814C71.2506 12.5317 70.6251 12.4082 70.1284 12.4082C68.3123 12.4082 66.8562 13.0626 65.7629 14.3715C65.324 14.8971 65.1032 15.3282 65.1032 15.6619C65.2846 16.2901 65.9942 16.6055 67.2347 16.6055C68.8353 16.6055 70.2992 16.206 71.6265 15.4044C72.7803 14.7079 73.3558 14.1744 73.3558 13.8038V13.8012Z" fill="white"/>
<path d="M90 5.61364H76.1177V4.06299H90V5.61364ZM87.2246 11.2959C87.2246 9.23009 86.2469 8.19719 84.2941 8.19719C82.8486 8.19719 81.6369 8.95412 80.6645 10.4706C79.8024 11.8136 79.374 13.2434 79.374 14.7572V18.5156L77.2557 17.4039V7.69257H79.4765V9.23008L80.6251 8.36539C81.6396 7.59795 82.7119 7.21686 83.8394 7.21686C85.3717 7.21686 86.6411 7.81084 87.6477 8.9988C88.5939 10.1184 89.0669 11.4562 89.0669 13.0147C89.0669 14.9701 88.2417 16.8467 86.5885 18.6444L84.097 17.0832C84.8723 16.3184 85.5293 15.6114 86.0734 14.9649C86.8408 14.0529 87.2219 12.8308 87.2219 11.2985L87.2246 11.2959Z" fill="white"/>
<path d="M36.0069 5.63718C34.4825 5.63718 29.2997 5.68186 28.7872 5.68186H27.2313V18.4182C27.1866 18.4419 27.1419 18.4682 27.0999 18.4918C26.774 18.1896 26.4323 17.9031 26.1274 17.5825C25.1024 16.5101 24.5908 15.2398 24.5925 13.7715C24.5925 11.2774 24.5925 8.78054 24.5925 6.28635C24.5925 6.08924 24.5925 5.89475 24.5925 5.66872H22.7817V18.4261C22.737 18.4498 22.6923 18.4734 22.6476 18.4945C22.3349 18.2027 22.0274 17.9084 21.712 17.6245C20.5819 16.6074 19.8985 15.451 20.1298 13.8215C20.2744 12.7991 20.1561 11.7426 20.1561 10.6256C19.6304 10.6256 19.1547 10.6597 18.6895 10.6124C18.4215 10.5835 18.0982 10.4889 17.9195 10.3075C17.1547 9.52958 16.4319 8.70958 15.6934 7.90534C15.7302 7.83964 15.7643 7.77655 15.8011 7.71085C16.2479 7.71085 16.6947 7.71085 17.1415 7.71085C17.4727 7.71085 17.8012 7.71085 18.1324 7.71085C18.8393 7.70559 19.5884 7.57156 20.1114 8.29958V5.63455C19.0654 5.86321 18.3531 4.6148 17.9063 4.07338C17.9405 4.02345 17.9747 3.97614 18.0088 3.9262C18.955 3.9262 19.9011 3.93934 20.8447 3.91569C21.0681 3.91043 21.2862 3.78691 21.4807 3.72647C21.8355 3.79217 22.193 3.90781 22.553 3.91569C23.5964 3.94197 24.6425 3.92358 25.7279 3.92358C25.7752 3.7764 25.8225 3.63447 25.8672 3.4978C25.925 3.50306 25.9776 3.49255 25.9934 3.51095C26.3324 3.88153 26.7529 3.94198 27.2339 3.93147C28.3483 3.90256 34.0357 3.92358 35.2789 3.92358L36.0043 5.63718H36.0069Z" fill="white"/>
<path d="M12.5153 2.92108C10.6335 2.95262 9.03812 3.56236 7.94215 5.29699C7.79759 5.19186 7.63464 5.10776 7.519 4.98161C6.86457 4.2641 6.22066 3.53871 5.57412 2.81595C5.3586 2.57678 5.36911 2.34812 5.53206 2.06953C6.52028 0.350668 10.0736 -0.884597 11.9318 0.805352C12.9936 1.77254 13.9292 2.89479 14.8334 4.01704C15.4405 4.77397 15.4037 5.70174 15.0489 6.58483C14.8807 7.00534 14.631 7.39695 14.3524 7.92259C14.4418 7.98567 14.6178 8.06188 14.7335 8.19067C15.748 9.34446 16.8807 10.422 17.7323 11.6888C19.6798 14.5799 18.8283 18.5984 15.8768 20.4408C13.0751 22.1886 9.96325 22.7537 7.05118 21.019C3.43211 18.8639 0.882733 15.7153 0.312408 11.3445C0.083752 9.60202 0.638309 8.08554 2.09172 6.97643C2.44916 6.70309 2.74352 6.65053 3.0773 7.03425C3.79218 7.86214 4.5386 8.66375 5.31918 9.52581C3.84474 10.3406 3.11672 11.5285 2.94852 13.0345C2.75929 14.7349 3.2823 16.3014 4.04974 17.7837C4.18116 18.036 4.55962 18.1858 4.85135 18.3251C7.68458 19.6655 11.8608 19.0347 14.1159 16.8559C15.9267 15.1082 16.4839 12.9583 15.8925 10.5061C15.7927 10.0909 15.5719 9.82543 15.1698 9.68876C14.8228 9.57312 14.4812 9.43645 14.1342 9.32606C13.4877 9.12106 12.878 9.09478 12.397 9.69664C12.1447 10.0094 11.8924 9.98049 11.6295 9.68087C10.9751 8.93972 10.3102 8.20644 9.65049 7.47054C9.41921 7.21297 9.46652 7.03688 9.72934 6.79508C10.4547 6.12751 11.1959 5.45732 11.824 4.70301C12.213 4.23519 12.4101 3.60441 12.694 3.04723C12.6362 3.00518 12.5757 2.9605 12.5179 2.91845L12.5153 2.92108Z" fill="white"/>
<path d="M61.331 8.39158C61.9943 8.39158 62.5321 7.85383 62.5321 7.19048C62.5321 6.52713 61.9943 5.98938 61.331 5.98938C60.6676 5.98938 60.1299 6.52713 60.1299 7.19048C60.1299 7.85383 60.6676 8.39158 61.331 8.39158Z" fill="white"/>
</svg>
