<svg width="29" height="28" viewBox="0 0 29 28" fill="none" xmlns="http://www.w3.org/2000/svg">
<path d="M14.7119 19.892C14.3652 19.892 14.0788 19.7704 13.8527 19.5271C13.6255 19.2839 13.5119 19.0001 13.5119 18.6758V6.27038L10.4319 9.392C10.1919 9.60821 9.91191 9.72335 9.59191 9.7374C9.27191 9.75038 8.97858 9.62173 8.71191 9.35146C8.47191 9.10821 8.35885 8.8174 8.37271 8.47902C8.38551 8.14173 8.49858 7.86497 8.71191 7.64875L13.7119 2.58119C13.8452 2.44605 13.9988 2.34443 14.1727 2.27632C14.3455 2.2093 14.5252 2.17578 14.7119 2.17578C14.8986 2.17578 15.0788 2.2093 15.2527 2.27632C15.4255 2.34443 15.5786 2.44605 15.7119 2.58119L20.7119 7.64875C20.9519 7.892 21.0655 8.17578 21.0527 8.50011C21.0388 8.82443 20.9252 9.10821 20.7119 9.35146C20.4452 9.5947 20.1519 9.72335 19.8319 9.7374C19.5119 9.75038 19.2319 9.63524 18.9919 9.392L15.9119 6.27038V18.6758C15.9119 19.0001 15.7988 19.2839 15.5727 19.5271C15.3455 19.7704 15.0586 19.892 14.7119 19.892ZM5.59191 26.1758C4.79191 26.1758 4.11191 25.892 3.55191 25.3244C2.99191 24.7569 2.71191 24.0677 2.71191 23.2569V20.0947C2.71191 19.7433 2.82551 19.4525 3.05271 19.2223C3.27885 18.9931 3.56525 18.8785 3.91191 18.8785C4.25858 18.8785 4.54498 18.9931 4.77111 19.2223C4.99831 19.4525 5.11191 19.7433 5.11191 20.0947V23.2569C5.11191 23.365 5.16525 23.4731 5.27191 23.5812C5.37858 23.6893 5.48525 23.7433 5.59191 23.7433H23.8319C23.9386 23.7433 24.0452 23.6893 24.1519 23.5812C24.2586 23.4731 24.3119 23.365 24.3119 23.2569V20.0947C24.3119 19.7433 24.425 19.4525 24.6511 19.2223C24.8783 18.9931 25.1652 18.8785 25.5119 18.8785C25.8586 18.8785 26.1455 18.9931 26.3727 19.2223C26.5988 19.4525 26.7119 19.7433 26.7119 20.0947V23.2569C26.7119 24.0677 26.4319 24.7569 25.8719 25.3244C25.3119 25.892 24.6319 26.1758 23.8319 26.1758H5.59191Z" fill="#9E9E9E"/>
</svg>
